%TF.GenerationSoftware,KiCad,Pcbnew,(5.1.9)-1*%
%TF.CreationDate,2021-02-18T13:46:49-05:00*%
%TF.ProjectId,K3NG_rotator_shield,4b334e47-5f72-46f7-9461-746f725f7368,rev?*%
%TF.SameCoordinates,Original*%
%TF.FileFunction,Copper,L1,Top*%
%TF.FilePolarity,Positive*%
%FSLAX46Y46*%
G04 Gerber Fmt 4.6, Leading zero omitted, Abs format (unit mm)*
G04 Created by KiCad (PCBNEW (5.1.9)-1) date 2021-02-18 13:46:49*
%MOMM*%
%LPD*%
G01*
G04 APERTURE LIST*
%TA.AperFunction,ComponentPad*%
%ADD10C,2.000000*%
%TD*%
%TA.AperFunction,ComponentPad*%
%ADD11C,4.064000*%
%TD*%
%TA.AperFunction,ComponentPad*%
%ADD12C,1.650000*%
%TD*%
%TA.AperFunction,ComponentPad*%
%ADD13O,1.400000X1.400000*%
%TD*%
%TA.AperFunction,ComponentPad*%
%ADD14C,1.400000*%
%TD*%
%TA.AperFunction,ComponentPad*%
%ADD15C,1.200000*%
%TD*%
%TA.AperFunction,ComponentPad*%
%ADD16R,1.200000X1.200000*%
%TD*%
%TA.AperFunction,ComponentPad*%
%ADD17C,1.600000*%
%TD*%
%TA.AperFunction,ComponentPad*%
%ADD18C,1.251000*%
%TD*%
%TA.AperFunction,ComponentPad*%
%ADD19O,1.727200X2.032000*%
%TD*%
%TA.AperFunction,Conductor*%
%ADD20C,0.250000*%
%TD*%
G04 APERTURE END LIST*
D10*
%TO.P,SW1,1*%
%TO.N,/Reset*%
X137518000Y-117221000D03*
%TO.P,SW1,2*%
%TO.N,GND*%
X137518000Y-112721000D03*
%TO.P,SW1,1*%
%TO.N,/Reset*%
X144018000Y-117221000D03*
%TO.P,SW1,2*%
%TO.N,GND*%
X144018000Y-112721000D03*
%TD*%
D11*
%TO.P,P8,1*%
%TO.N,Net-(P8-Pad1)*%
X177038000Y-108077000D03*
%TD*%
%TO.P,P8,1*%
%TO.N,Net-(P8-Pad1)*%
X177038000Y-100457000D03*
%TD*%
D12*
%TO.P,J1,6*%
%TO.N,Net-(J1-Pad6)*%
X165862000Y-110617000D03*
%TO.P,J1,5*%
%TO.N,GND*%
X165862000Y-108077000D03*
%TO.P,J1,4*%
%TO.N,/AZctlr*%
X165862000Y-105537000D03*
%TO.P,J1,3*%
%TO.N,/SPDctlr*%
X165862000Y-102997000D03*
%TO.P,J1,2*%
%TO.N,/CCWctlr*%
X165862000Y-100457000D03*
%TO.P,J1,1*%
%TO.N,/CWctlr*%
X165862000Y-97917000D03*
%TD*%
D13*
%TO.P,R4,2*%
%TO.N,Net-(Q2-Pad2)*%
X159258000Y-84201000D03*
D14*
%TO.P,R4,1*%
%TO.N,/6(\u002A\u002A)*%
X159258000Y-79121000D03*
%TD*%
D13*
%TO.P,R3,2*%
%TO.N,/SPDctlr*%
X147574000Y-81153000D03*
D14*
%TO.P,R3,1*%
%TO.N,/8*%
X152654000Y-81153000D03*
%TD*%
D13*
%TO.P,R2,2*%
%TO.N,Net-(Q1-Pad2)*%
X156718000Y-84201000D03*
D14*
%TO.P,R2,1*%
%TO.N,/7*%
X156718000Y-79121000D03*
%TD*%
D13*
%TO.P,R1,2*%
%TO.N,/AZctlr*%
X161798000Y-115189000D03*
D14*
%TO.P,R1,1*%
%TO.N,/A0*%
X161798000Y-120269000D03*
%TD*%
D15*
%TO.P,C4,2*%
%TO.N,GND*%
X143542000Y-102997000D03*
D16*
%TO.P,C4,1*%
%TO.N,/SPDctlr*%
X145542000Y-102997000D03*
%TD*%
D17*
%TO.P,C3,2*%
%TO.N,/CWctlr*%
X159178000Y-96901000D03*
%TO.P,C3,1*%
%TO.N,GND*%
X154178000Y-96901000D03*
%TD*%
%TO.P,C2,2*%
%TO.N,/CCWctlr*%
X159178000Y-100457000D03*
%TO.P,C2,1*%
%TO.N,GND*%
X154178000Y-100457000D03*
%TD*%
%TO.P,C1,2*%
%TO.N,/AZctlr*%
X159178000Y-105537000D03*
%TO.P,C1,1*%
%TO.N,GND*%
X154178000Y-105537000D03*
%TD*%
D18*
%TO.P,Q2,3*%
%TO.N,/CWctlr*%
X159376000Y-90687000D03*
%TO.P,Q2,2*%
%TO.N,Net-(Q2-Pad2)*%
X159376000Y-88891000D03*
%TO.P,Q2,1*%
%TO.N,GND*%
X161172000Y-88891000D03*
%TD*%
%TO.P,Q1,3*%
%TO.N,/CCWctlr*%
X150740000Y-90687000D03*
%TO.P,Q1,2*%
%TO.N,Net-(Q1-Pad2)*%
X150740000Y-88891000D03*
%TO.P,Q1,1*%
%TO.N,GND*%
X152536000Y-88891000D03*
%TD*%
D19*
%TO.P,P1,1*%
%TO.N,Net-(P1-Pad1)*%
X138938000Y-123825000D03*
%TO.P,P1,2*%
%TO.N,/IOREF*%
X141478000Y-123825000D03*
%TO.P,P1,3*%
%TO.N,/Reset*%
X144018000Y-123825000D03*
%TO.P,P1,4*%
%TO.N,+3V3*%
X146558000Y-123825000D03*
%TO.P,P1,5*%
%TO.N,+5V*%
X149098000Y-123825000D03*
%TO.P,P1,6*%
%TO.N,GND*%
X151638000Y-123825000D03*
%TO.P,P1,7*%
X154178000Y-123825000D03*
%TO.P,P1,8*%
%TO.N,/Vin*%
X156718000Y-123825000D03*
%TD*%
%TO.P,P2,1*%
%TO.N,/A0*%
X161798000Y-123825000D03*
%TO.P,P2,2*%
%TO.N,/A1*%
X164338000Y-123825000D03*
%TO.P,P2,3*%
%TO.N,/A2*%
X166878000Y-123825000D03*
%TO.P,P2,4*%
%TO.N,/A3*%
X169418000Y-123825000D03*
%TO.P,P2,5*%
%TO.N,/A4(SDA)*%
X171958000Y-123825000D03*
%TO.P,P2,6*%
%TO.N,/A5(SCL)*%
X174498000Y-123825000D03*
%TD*%
%TO.P,P3,1*%
%TO.N,/A5(SCL)*%
X129794000Y-75565000D03*
%TO.P,P3,2*%
%TO.N,/A4(SDA)*%
X132334000Y-75565000D03*
%TO.P,P3,3*%
%TO.N,/AREF*%
X134874000Y-75565000D03*
%TO.P,P3,4*%
%TO.N,GND*%
X137414000Y-75565000D03*
%TO.P,P3,5*%
%TO.N,/13(SCK)*%
X139954000Y-75565000D03*
%TO.P,P3,6*%
%TO.N,/12(MISO)*%
X142494000Y-75565000D03*
%TO.P,P3,7*%
%TO.N,/11(\u002A\u002A/MOSI)*%
X145034000Y-75565000D03*
%TO.P,P3,8*%
%TO.N,/10(\u002A\u002A/SS)*%
X147574000Y-75565000D03*
%TO.P,P3,9*%
%TO.N,/9(\u002A\u002A)*%
X150114000Y-75565000D03*
%TO.P,P3,10*%
%TO.N,/8*%
X152654000Y-75565000D03*
%TD*%
%TO.P,P4,1*%
%TO.N,/7*%
X156718000Y-75565000D03*
%TO.P,P4,2*%
%TO.N,/6(\u002A\u002A)*%
X159258000Y-75565000D03*
%TO.P,P4,3*%
%TO.N,/5(\u002A\u002A)*%
X161798000Y-75565000D03*
%TO.P,P4,4*%
%TO.N,/4*%
X164338000Y-75565000D03*
%TO.P,P4,5*%
%TO.N,/3(\u002A\u002A)*%
X166878000Y-75565000D03*
%TO.P,P4,6*%
%TO.N,/2*%
X169418000Y-75565000D03*
%TO.P,P4,7*%
%TO.N,/1(Tx)*%
X171958000Y-75565000D03*
%TO.P,P4,8*%
%TO.N,/0(Rx)*%
X174498000Y-75565000D03*
%TD*%
D11*
%TO.P,P5,1*%
%TO.N,Net-(P5-Pad1)*%
X124968000Y-123825000D03*
%TD*%
%TO.P,P6,1*%
%TO.N,Net-(P6-Pad1)*%
X177038000Y-118745000D03*
%TD*%
%TO.P,P7,1*%
%TO.N,Net-(P7-Pad1)*%
X126238000Y-75565000D03*
%TD*%
%TO.P,P8,1*%
%TO.N,Net-(P8-Pad1)*%
X177038000Y-90805000D03*
%TD*%
D20*
%TO.N,/Reset*%
X144018000Y-117221000D02*
X144018000Y-123825000D01*
X137518000Y-117221000D02*
X144018000Y-117221000D01*
%TO.N,/A0*%
X161798000Y-120269000D02*
X161798000Y-123825000D01*
%TO.N,/8*%
X152654000Y-75565000D02*
X152654000Y-81153000D01*
%TO.N,/7*%
X156718000Y-75565000D02*
X156718000Y-79121000D01*
%TO.N,/6(\u002A\u002A)*%
X159258000Y-75565000D02*
X159258000Y-79121000D01*
%TO.N,/CCWctlr*%
X159178000Y-100457000D02*
X165862000Y-100457000D01*
X159178000Y-100377000D02*
X159178000Y-100457000D01*
X156718000Y-97917000D02*
X159178000Y-100377000D01*
X156718000Y-95377000D02*
X156718000Y-97917000D01*
X152028000Y-90687000D02*
X156718000Y-95377000D01*
X150740000Y-90687000D02*
X152028000Y-90687000D01*
%TO.N,Net-(Q1-Pad2)*%
X156718000Y-84201000D02*
X151638000Y-84201000D01*
X150740000Y-85099000D02*
X150740000Y-88891000D01*
X151638000Y-84201000D02*
X150740000Y-85099000D01*
%TO.N,/CWctlr*%
X159376000Y-96703000D02*
X159178000Y-96901000D01*
X159376000Y-90687000D02*
X159376000Y-96703000D01*
X164846000Y-96901000D02*
X165862000Y-97917000D01*
X159178000Y-96901000D02*
X164846000Y-96901000D01*
%TO.N,Net-(Q2-Pad2)*%
X159258000Y-88773000D02*
X159376000Y-88891000D01*
X159258000Y-84201000D02*
X159258000Y-88773000D01*
%TO.N,/AZctlr*%
X159178000Y-105537000D02*
X165862000Y-105537000D01*
X159178000Y-112569000D02*
X161798000Y-115189000D01*
X159178000Y-105537000D02*
X159178000Y-112569000D01*
%TO.N,/SPDctlr*%
X147574000Y-81153000D02*
X147574000Y-82169000D01*
X147574000Y-81153000D02*
X145542000Y-83185000D01*
X145542000Y-83185000D02*
X145542000Y-102997000D01*
X145542000Y-102997000D02*
X165862000Y-102997000D01*
%TD*%
M02*
