%TF.GenerationSoftware,KiCad,Pcbnew,(5.1.9)-1*%
%TF.CreationDate,2021-02-18T13:46:49-05:00*%
%TF.ProjectId,K3NG_rotator_shield,4b334e47-5f72-46f7-9461-746f725f7368,rev?*%
%TF.SameCoordinates,Original*%
%TF.FileFunction,Soldermask,Top*%
%TF.FilePolarity,Negative*%
%FSLAX46Y46*%
G04 Gerber Fmt 4.6, Leading zero omitted, Abs format (unit mm)*
G04 Created by KiCad (PCBNEW (5.1.9)-1) date 2021-02-18 13:46:49*
%MOMM*%
%LPD*%
G01*
G04 APERTURE LIST*
%ADD10C,2.000000*%
%ADD11C,4.064000*%
%ADD12C,1.650000*%
%ADD13O,1.400000X1.400000*%
%ADD14C,1.400000*%
%ADD15C,1.200000*%
%ADD16R,1.200000X1.200000*%
%ADD17C,1.600000*%
%ADD18C,1.251000*%
%ADD19O,1.727200X2.032000*%
G04 APERTURE END LIST*
D10*
%TO.C,SW1*%
X137518000Y-117221000D03*
X137518000Y-112721000D03*
X144018000Y-117221000D03*
X144018000Y-112721000D03*
%TD*%
D11*
%TO.C,P8*%
X177038000Y-108077000D03*
%TD*%
%TO.C,P8*%
X177038000Y-100457000D03*
%TD*%
D12*
%TO.C,J1*%
X165862000Y-110617000D03*
X165862000Y-108077000D03*
X165862000Y-105537000D03*
X165862000Y-102997000D03*
X165862000Y-100457000D03*
X165862000Y-97917000D03*
%TD*%
D13*
%TO.C,R4*%
X159258000Y-84201000D03*
D14*
X159258000Y-79121000D03*
%TD*%
D13*
%TO.C,R3*%
X147574000Y-81153000D03*
D14*
X152654000Y-81153000D03*
%TD*%
D13*
%TO.C,R2*%
X156718000Y-84201000D03*
D14*
X156718000Y-79121000D03*
%TD*%
D13*
%TO.C,R1*%
X161798000Y-115189000D03*
D14*
X161798000Y-120269000D03*
%TD*%
D15*
%TO.C,C4*%
X143542000Y-102997000D03*
D16*
X145542000Y-102997000D03*
%TD*%
D17*
%TO.C,C3*%
X159178000Y-96901000D03*
X154178000Y-96901000D03*
%TD*%
%TO.C,C2*%
X159178000Y-100457000D03*
X154178000Y-100457000D03*
%TD*%
%TO.C,C1*%
X159178000Y-105537000D03*
X154178000Y-105537000D03*
%TD*%
D18*
%TO.C,Q2*%
X159376000Y-90687000D03*
X159376000Y-88891000D03*
X161172000Y-88891000D03*
%TD*%
%TO.C,Q1*%
X150740000Y-90687000D03*
X150740000Y-88891000D03*
X152536000Y-88891000D03*
%TD*%
D19*
%TO.C,P1*%
X138938000Y-123825000D03*
X141478000Y-123825000D03*
X144018000Y-123825000D03*
X146558000Y-123825000D03*
X149098000Y-123825000D03*
X151638000Y-123825000D03*
X154178000Y-123825000D03*
X156718000Y-123825000D03*
%TD*%
%TO.C,P2*%
X161798000Y-123825000D03*
X164338000Y-123825000D03*
X166878000Y-123825000D03*
X169418000Y-123825000D03*
X171958000Y-123825000D03*
X174498000Y-123825000D03*
%TD*%
%TO.C,P3*%
X129794000Y-75565000D03*
X132334000Y-75565000D03*
X134874000Y-75565000D03*
X137414000Y-75565000D03*
X139954000Y-75565000D03*
X142494000Y-75565000D03*
X145034000Y-75565000D03*
X147574000Y-75565000D03*
X150114000Y-75565000D03*
X152654000Y-75565000D03*
%TD*%
%TO.C,P4*%
X156718000Y-75565000D03*
X159258000Y-75565000D03*
X161798000Y-75565000D03*
X164338000Y-75565000D03*
X166878000Y-75565000D03*
X169418000Y-75565000D03*
X171958000Y-75565000D03*
X174498000Y-75565000D03*
%TD*%
D11*
%TO.C,P5*%
X124968000Y-123825000D03*
%TD*%
%TO.C,P6*%
X177038000Y-118745000D03*
%TD*%
%TO.C,P7*%
X126238000Y-75565000D03*
%TD*%
%TO.C,P8*%
X177038000Y-90805000D03*
%TD*%
M02*
