%TF.GenerationSoftware,KiCad,Pcbnew,(5.1.9)-1*%
%TF.CreationDate,2021-02-18T13:46:49-05:00*%
%TF.ProjectId,K3NG_rotator_shield,4b334e47-5f72-46f7-9461-746f725f7368,rev?*%
%TF.SameCoordinates,Original*%
%TF.FileFunction,Copper,L2,Bot*%
%TF.FilePolarity,Positive*%
%FSLAX46Y46*%
G04 Gerber Fmt 4.6, Leading zero omitted, Abs format (unit mm)*
G04 Created by KiCad (PCBNEW (5.1.9)-1) date 2021-02-18 13:46:49*
%MOMM*%
%LPD*%
G01*
G04 APERTURE LIST*
%TA.AperFunction,ComponentPad*%
%ADD10C,2.000000*%
%TD*%
%TA.AperFunction,ComponentPad*%
%ADD11C,4.064000*%
%TD*%
%TA.AperFunction,ComponentPad*%
%ADD12C,1.650000*%
%TD*%
%TA.AperFunction,ComponentPad*%
%ADD13O,1.400000X1.400000*%
%TD*%
%TA.AperFunction,ComponentPad*%
%ADD14C,1.400000*%
%TD*%
%TA.AperFunction,ComponentPad*%
%ADD15C,1.200000*%
%TD*%
%TA.AperFunction,ComponentPad*%
%ADD16R,1.200000X1.200000*%
%TD*%
%TA.AperFunction,ComponentPad*%
%ADD17C,1.600000*%
%TD*%
%TA.AperFunction,ComponentPad*%
%ADD18C,1.251000*%
%TD*%
%TA.AperFunction,ComponentPad*%
%ADD19O,1.727200X2.032000*%
%TD*%
%TA.AperFunction,Conductor*%
%ADD20C,0.254000*%
%TD*%
%TA.AperFunction,Conductor*%
%ADD21C,0.100000*%
%TD*%
G04 APERTURE END LIST*
D10*
%TO.P,SW1,1*%
%TO.N,/Reset*%
X137518000Y-117221000D03*
%TO.P,SW1,2*%
%TO.N,GND*%
X137518000Y-112721000D03*
%TO.P,SW1,1*%
%TO.N,/Reset*%
X144018000Y-117221000D03*
%TO.P,SW1,2*%
%TO.N,GND*%
X144018000Y-112721000D03*
%TD*%
D11*
%TO.P,P8,1*%
%TO.N,Net-(P8-Pad1)*%
X177038000Y-108077000D03*
%TD*%
%TO.P,P8,1*%
%TO.N,Net-(P8-Pad1)*%
X177038000Y-100457000D03*
%TD*%
D12*
%TO.P,J1,6*%
%TO.N,Net-(J1-Pad6)*%
X165862000Y-110617000D03*
%TO.P,J1,5*%
%TO.N,GND*%
X165862000Y-108077000D03*
%TO.P,J1,4*%
%TO.N,/AZctlr*%
X165862000Y-105537000D03*
%TO.P,J1,3*%
%TO.N,/SPDctlr*%
X165862000Y-102997000D03*
%TO.P,J1,2*%
%TO.N,/CCWctlr*%
X165862000Y-100457000D03*
%TO.P,J1,1*%
%TO.N,/CWctlr*%
X165862000Y-97917000D03*
%TD*%
D13*
%TO.P,R4,2*%
%TO.N,Net-(Q2-Pad2)*%
X159258000Y-84201000D03*
D14*
%TO.P,R4,1*%
%TO.N,/6(\u002A\u002A)*%
X159258000Y-79121000D03*
%TD*%
D13*
%TO.P,R3,2*%
%TO.N,/SPDctlr*%
X147574000Y-81153000D03*
D14*
%TO.P,R3,1*%
%TO.N,/8*%
X152654000Y-81153000D03*
%TD*%
D13*
%TO.P,R2,2*%
%TO.N,Net-(Q1-Pad2)*%
X156718000Y-84201000D03*
D14*
%TO.P,R2,1*%
%TO.N,/7*%
X156718000Y-79121000D03*
%TD*%
D13*
%TO.P,R1,2*%
%TO.N,/AZctlr*%
X161798000Y-115189000D03*
D14*
%TO.P,R1,1*%
%TO.N,/A0*%
X161798000Y-120269000D03*
%TD*%
D15*
%TO.P,C4,2*%
%TO.N,GND*%
X143542000Y-102997000D03*
D16*
%TO.P,C4,1*%
%TO.N,/SPDctlr*%
X145542000Y-102997000D03*
%TD*%
D17*
%TO.P,C3,2*%
%TO.N,/CWctlr*%
X159178000Y-96901000D03*
%TO.P,C3,1*%
%TO.N,GND*%
X154178000Y-96901000D03*
%TD*%
%TO.P,C2,2*%
%TO.N,/CCWctlr*%
X159178000Y-100457000D03*
%TO.P,C2,1*%
%TO.N,GND*%
X154178000Y-100457000D03*
%TD*%
%TO.P,C1,2*%
%TO.N,/AZctlr*%
X159178000Y-105537000D03*
%TO.P,C1,1*%
%TO.N,GND*%
X154178000Y-105537000D03*
%TD*%
D18*
%TO.P,Q2,3*%
%TO.N,/CWctlr*%
X159376000Y-90687000D03*
%TO.P,Q2,2*%
%TO.N,Net-(Q2-Pad2)*%
X159376000Y-88891000D03*
%TO.P,Q2,1*%
%TO.N,GND*%
X161172000Y-88891000D03*
%TD*%
%TO.P,Q1,3*%
%TO.N,/CCWctlr*%
X150740000Y-90687000D03*
%TO.P,Q1,2*%
%TO.N,Net-(Q1-Pad2)*%
X150740000Y-88891000D03*
%TO.P,Q1,1*%
%TO.N,GND*%
X152536000Y-88891000D03*
%TD*%
D19*
%TO.P,P1,1*%
%TO.N,Net-(P1-Pad1)*%
X138938000Y-123825000D03*
%TO.P,P1,2*%
%TO.N,/IOREF*%
X141478000Y-123825000D03*
%TO.P,P1,3*%
%TO.N,/Reset*%
X144018000Y-123825000D03*
%TO.P,P1,4*%
%TO.N,+3V3*%
X146558000Y-123825000D03*
%TO.P,P1,5*%
%TO.N,+5V*%
X149098000Y-123825000D03*
%TO.P,P1,6*%
%TO.N,GND*%
X151638000Y-123825000D03*
%TO.P,P1,7*%
X154178000Y-123825000D03*
%TO.P,P1,8*%
%TO.N,/Vin*%
X156718000Y-123825000D03*
%TD*%
%TO.P,P2,1*%
%TO.N,/A0*%
X161798000Y-123825000D03*
%TO.P,P2,2*%
%TO.N,/A1*%
X164338000Y-123825000D03*
%TO.P,P2,3*%
%TO.N,/A2*%
X166878000Y-123825000D03*
%TO.P,P2,4*%
%TO.N,/A3*%
X169418000Y-123825000D03*
%TO.P,P2,5*%
%TO.N,/A4(SDA)*%
X171958000Y-123825000D03*
%TO.P,P2,6*%
%TO.N,/A5(SCL)*%
X174498000Y-123825000D03*
%TD*%
%TO.P,P3,1*%
%TO.N,/A5(SCL)*%
X129794000Y-75565000D03*
%TO.P,P3,2*%
%TO.N,/A4(SDA)*%
X132334000Y-75565000D03*
%TO.P,P3,3*%
%TO.N,/AREF*%
X134874000Y-75565000D03*
%TO.P,P3,4*%
%TO.N,GND*%
X137414000Y-75565000D03*
%TO.P,P3,5*%
%TO.N,/13(SCK)*%
X139954000Y-75565000D03*
%TO.P,P3,6*%
%TO.N,/12(MISO)*%
X142494000Y-75565000D03*
%TO.P,P3,7*%
%TO.N,/11(\u002A\u002A/MOSI)*%
X145034000Y-75565000D03*
%TO.P,P3,8*%
%TO.N,/10(\u002A\u002A/SS)*%
X147574000Y-75565000D03*
%TO.P,P3,9*%
%TO.N,/9(\u002A\u002A)*%
X150114000Y-75565000D03*
%TO.P,P3,10*%
%TO.N,/8*%
X152654000Y-75565000D03*
%TD*%
%TO.P,P4,1*%
%TO.N,/7*%
X156718000Y-75565000D03*
%TO.P,P4,2*%
%TO.N,/6(\u002A\u002A)*%
X159258000Y-75565000D03*
%TO.P,P4,3*%
%TO.N,/5(\u002A\u002A)*%
X161798000Y-75565000D03*
%TO.P,P4,4*%
%TO.N,/4*%
X164338000Y-75565000D03*
%TO.P,P4,5*%
%TO.N,/3(\u002A\u002A)*%
X166878000Y-75565000D03*
%TO.P,P4,6*%
%TO.N,/2*%
X169418000Y-75565000D03*
%TO.P,P4,7*%
%TO.N,/1(Tx)*%
X171958000Y-75565000D03*
%TO.P,P4,8*%
%TO.N,/0(Rx)*%
X174498000Y-75565000D03*
%TD*%
D11*
%TO.P,P5,1*%
%TO.N,Net-(P5-Pad1)*%
X124968000Y-123825000D03*
%TD*%
%TO.P,P6,1*%
%TO.N,Net-(P6-Pad1)*%
X177038000Y-118745000D03*
%TD*%
%TO.P,P7,1*%
%TO.N,Net-(P7-Pad1)*%
X126238000Y-75565000D03*
%TD*%
%TO.P,P8,1*%
%TO.N,Net-(P8-Pad1)*%
X177038000Y-90805000D03*
%TD*%
D20*
%TO.N,GND*%
X124166406Y-73864887D02*
X123874536Y-74301702D01*
X123673492Y-74787065D01*
X123571000Y-75302323D01*
X123571000Y-75827677D01*
X123673492Y-76342935D01*
X123874536Y-76828298D01*
X124166406Y-77265113D01*
X124537887Y-77636594D01*
X124974702Y-77928464D01*
X125460065Y-78129508D01*
X125975323Y-78232000D01*
X126500677Y-78232000D01*
X127015935Y-78129508D01*
X127501298Y-77928464D01*
X127938113Y-77636594D01*
X128309594Y-77265113D01*
X128601464Y-76828298D01*
X128657001Y-76694219D01*
X128729203Y-76782197D01*
X128957395Y-76969469D01*
X129217737Y-77108625D01*
X129500224Y-77194316D01*
X129794000Y-77223251D01*
X130087777Y-77194316D01*
X130370264Y-77108625D01*
X130630606Y-76969469D01*
X130858797Y-76782197D01*
X131046069Y-76554006D01*
X131064000Y-76520459D01*
X131081931Y-76554006D01*
X131269203Y-76782197D01*
X131497395Y-76969469D01*
X131757737Y-77108625D01*
X132040224Y-77194316D01*
X132334000Y-77223251D01*
X132627777Y-77194316D01*
X132910264Y-77108625D01*
X133170606Y-76969469D01*
X133398797Y-76782197D01*
X133586069Y-76554006D01*
X133604000Y-76520459D01*
X133621931Y-76554006D01*
X133809203Y-76782197D01*
X134037395Y-76969469D01*
X134297737Y-77108625D01*
X134580224Y-77194316D01*
X134874000Y-77223251D01*
X135167777Y-77194316D01*
X135450264Y-77108625D01*
X135710606Y-76969469D01*
X135938797Y-76782197D01*
X136126069Y-76554006D01*
X136147424Y-76514053D01*
X136295514Y-76716729D01*
X136511965Y-76915733D01*
X136763081Y-77068686D01*
X137039211Y-77169709D01*
X137054974Y-77172358D01*
X137287000Y-77051217D01*
X137287000Y-75692000D01*
X137267000Y-75692000D01*
X137267000Y-75438000D01*
X137287000Y-75438000D01*
X137287000Y-74078783D01*
X137541000Y-74078783D01*
X137541000Y-75438000D01*
X137561000Y-75438000D01*
X137561000Y-75692000D01*
X137541000Y-75692000D01*
X137541000Y-77051217D01*
X137773026Y-77172358D01*
X137788789Y-77169709D01*
X138064919Y-77068686D01*
X138316035Y-76915733D01*
X138532486Y-76716729D01*
X138680576Y-76514053D01*
X138701931Y-76554006D01*
X138889203Y-76782197D01*
X139117395Y-76969469D01*
X139377737Y-77108625D01*
X139660224Y-77194316D01*
X139954000Y-77223251D01*
X140247777Y-77194316D01*
X140530264Y-77108625D01*
X140790606Y-76969469D01*
X141018797Y-76782197D01*
X141206069Y-76554006D01*
X141224000Y-76520459D01*
X141241931Y-76554006D01*
X141429203Y-76782197D01*
X141657395Y-76969469D01*
X141917737Y-77108625D01*
X142200224Y-77194316D01*
X142494000Y-77223251D01*
X142787777Y-77194316D01*
X143070264Y-77108625D01*
X143330606Y-76969469D01*
X143558797Y-76782197D01*
X143746069Y-76554006D01*
X143764000Y-76520459D01*
X143781931Y-76554006D01*
X143969203Y-76782197D01*
X144197395Y-76969469D01*
X144457737Y-77108625D01*
X144740224Y-77194316D01*
X145034000Y-77223251D01*
X145327777Y-77194316D01*
X145610264Y-77108625D01*
X145870606Y-76969469D01*
X146098797Y-76782197D01*
X146286069Y-76554006D01*
X146304000Y-76520459D01*
X146321931Y-76554006D01*
X146509203Y-76782197D01*
X146737395Y-76969469D01*
X146997737Y-77108625D01*
X147280224Y-77194316D01*
X147574000Y-77223251D01*
X147867777Y-77194316D01*
X148150264Y-77108625D01*
X148410606Y-76969469D01*
X148638797Y-76782197D01*
X148826069Y-76554006D01*
X148844000Y-76520459D01*
X148861931Y-76554006D01*
X149049203Y-76782197D01*
X149277395Y-76969469D01*
X149537737Y-77108625D01*
X149820224Y-77194316D01*
X150114000Y-77223251D01*
X150407777Y-77194316D01*
X150690264Y-77108625D01*
X150950606Y-76969469D01*
X151178797Y-76782197D01*
X151366069Y-76554006D01*
X151384000Y-76520459D01*
X151401931Y-76554006D01*
X151589203Y-76782197D01*
X151817395Y-76969469D01*
X152077737Y-77108625D01*
X152360224Y-77194316D01*
X152654000Y-77223251D01*
X152947777Y-77194316D01*
X153230264Y-77108625D01*
X153490606Y-76969469D01*
X153718797Y-76782197D01*
X153906069Y-76554006D01*
X154045225Y-76293663D01*
X154130916Y-76011176D01*
X154152600Y-75791018D01*
X154152600Y-75338982D01*
X155219400Y-75338982D01*
X155219400Y-75791019D01*
X155241084Y-76011177D01*
X155326775Y-76293664D01*
X155465931Y-76554006D01*
X155653203Y-76782197D01*
X155881395Y-76969469D01*
X156141737Y-77108625D01*
X156424224Y-77194316D01*
X156718000Y-77223251D01*
X157011777Y-77194316D01*
X157294264Y-77108625D01*
X157554606Y-76969469D01*
X157782797Y-76782197D01*
X157970069Y-76554006D01*
X157988000Y-76520459D01*
X158005931Y-76554006D01*
X158193203Y-76782197D01*
X158421395Y-76969469D01*
X158681737Y-77108625D01*
X158964224Y-77194316D01*
X159258000Y-77223251D01*
X159551777Y-77194316D01*
X159834264Y-77108625D01*
X160094606Y-76969469D01*
X160322797Y-76782197D01*
X160510069Y-76554006D01*
X160528000Y-76520459D01*
X160545931Y-76554006D01*
X160733203Y-76782197D01*
X160961395Y-76969469D01*
X161221737Y-77108625D01*
X161504224Y-77194316D01*
X161798000Y-77223251D01*
X162091777Y-77194316D01*
X162374264Y-77108625D01*
X162634606Y-76969469D01*
X162862797Y-76782197D01*
X163050069Y-76554006D01*
X163068000Y-76520459D01*
X163085931Y-76554006D01*
X163273203Y-76782197D01*
X163501395Y-76969469D01*
X163761737Y-77108625D01*
X164044224Y-77194316D01*
X164338000Y-77223251D01*
X164631777Y-77194316D01*
X164914264Y-77108625D01*
X165174606Y-76969469D01*
X165402797Y-76782197D01*
X165590069Y-76554006D01*
X165608000Y-76520459D01*
X165625931Y-76554006D01*
X165813203Y-76782197D01*
X166041395Y-76969469D01*
X166301737Y-77108625D01*
X166584224Y-77194316D01*
X166878000Y-77223251D01*
X167171777Y-77194316D01*
X167454264Y-77108625D01*
X167714606Y-76969469D01*
X167942797Y-76782197D01*
X168130069Y-76554006D01*
X168148000Y-76520459D01*
X168165931Y-76554006D01*
X168353203Y-76782197D01*
X168581395Y-76969469D01*
X168841737Y-77108625D01*
X169124224Y-77194316D01*
X169418000Y-77223251D01*
X169711777Y-77194316D01*
X169994264Y-77108625D01*
X170254606Y-76969469D01*
X170482797Y-76782197D01*
X170670069Y-76554006D01*
X170688000Y-76520459D01*
X170705931Y-76554006D01*
X170893203Y-76782197D01*
X171121395Y-76969469D01*
X171381737Y-77108625D01*
X171664224Y-77194316D01*
X171958000Y-77223251D01*
X172251777Y-77194316D01*
X172534264Y-77108625D01*
X172794606Y-76969469D01*
X173022797Y-76782197D01*
X173210069Y-76554006D01*
X173228000Y-76520459D01*
X173245931Y-76554006D01*
X173433203Y-76782197D01*
X173661395Y-76969469D01*
X173921737Y-77108625D01*
X174204224Y-77194316D01*
X174498000Y-77223251D01*
X174791777Y-77194316D01*
X175074264Y-77108625D01*
X175334606Y-76969469D01*
X175562797Y-76782197D01*
X175750069Y-76554006D01*
X175889225Y-76293663D01*
X175974916Y-76011176D01*
X175996600Y-75791018D01*
X175996600Y-75338981D01*
X175974916Y-75118823D01*
X175889225Y-74836336D01*
X175750069Y-74575994D01*
X175562797Y-74347803D01*
X175334605Y-74160531D01*
X175074263Y-74021375D01*
X174791776Y-73935684D01*
X174498000Y-73906749D01*
X174204223Y-73935684D01*
X173921736Y-74021375D01*
X173661394Y-74160531D01*
X173433203Y-74347803D01*
X173245931Y-74575995D01*
X173228000Y-74609541D01*
X173210069Y-74575994D01*
X173022797Y-74347803D01*
X172794605Y-74160531D01*
X172534263Y-74021375D01*
X172251776Y-73935684D01*
X171958000Y-73906749D01*
X171664223Y-73935684D01*
X171381736Y-74021375D01*
X171121394Y-74160531D01*
X170893203Y-74347803D01*
X170705931Y-74575995D01*
X170688000Y-74609541D01*
X170670069Y-74575994D01*
X170482797Y-74347803D01*
X170254605Y-74160531D01*
X169994263Y-74021375D01*
X169711776Y-73935684D01*
X169418000Y-73906749D01*
X169124223Y-73935684D01*
X168841736Y-74021375D01*
X168581394Y-74160531D01*
X168353203Y-74347803D01*
X168165931Y-74575995D01*
X168148000Y-74609541D01*
X168130069Y-74575994D01*
X167942797Y-74347803D01*
X167714605Y-74160531D01*
X167454263Y-74021375D01*
X167171776Y-73935684D01*
X166878000Y-73906749D01*
X166584223Y-73935684D01*
X166301736Y-74021375D01*
X166041394Y-74160531D01*
X165813203Y-74347803D01*
X165625931Y-74575995D01*
X165608000Y-74609541D01*
X165590069Y-74575994D01*
X165402797Y-74347803D01*
X165174605Y-74160531D01*
X164914263Y-74021375D01*
X164631776Y-73935684D01*
X164338000Y-73906749D01*
X164044223Y-73935684D01*
X163761736Y-74021375D01*
X163501394Y-74160531D01*
X163273203Y-74347803D01*
X163085931Y-74575995D01*
X163068000Y-74609541D01*
X163050069Y-74575994D01*
X162862797Y-74347803D01*
X162634605Y-74160531D01*
X162374263Y-74021375D01*
X162091776Y-73935684D01*
X161798000Y-73906749D01*
X161504223Y-73935684D01*
X161221736Y-74021375D01*
X160961394Y-74160531D01*
X160733203Y-74347803D01*
X160545931Y-74575995D01*
X160528000Y-74609541D01*
X160510069Y-74575994D01*
X160322797Y-74347803D01*
X160094605Y-74160531D01*
X159834263Y-74021375D01*
X159551776Y-73935684D01*
X159258000Y-73906749D01*
X158964223Y-73935684D01*
X158681736Y-74021375D01*
X158421394Y-74160531D01*
X158193203Y-74347803D01*
X158005931Y-74575995D01*
X157988000Y-74609541D01*
X157970069Y-74575994D01*
X157782797Y-74347803D01*
X157554605Y-74160531D01*
X157294263Y-74021375D01*
X157011776Y-73935684D01*
X156718000Y-73906749D01*
X156424223Y-73935684D01*
X156141736Y-74021375D01*
X155881394Y-74160531D01*
X155653203Y-74347803D01*
X155465931Y-74575995D01*
X155326775Y-74836337D01*
X155241084Y-75118824D01*
X155219400Y-75338982D01*
X154152600Y-75338982D01*
X154152600Y-75338981D01*
X154130916Y-75118823D01*
X154045225Y-74836336D01*
X153906069Y-74575994D01*
X153718797Y-74347803D01*
X153490605Y-74160531D01*
X153230263Y-74021375D01*
X152947776Y-73935684D01*
X152654000Y-73906749D01*
X152360223Y-73935684D01*
X152077736Y-74021375D01*
X151817394Y-74160531D01*
X151589203Y-74347803D01*
X151401931Y-74575995D01*
X151384000Y-74609541D01*
X151366069Y-74575994D01*
X151178797Y-74347803D01*
X150950605Y-74160531D01*
X150690263Y-74021375D01*
X150407776Y-73935684D01*
X150114000Y-73906749D01*
X149820223Y-73935684D01*
X149537736Y-74021375D01*
X149277394Y-74160531D01*
X149049203Y-74347803D01*
X148861931Y-74575995D01*
X148844000Y-74609541D01*
X148826069Y-74575994D01*
X148638797Y-74347803D01*
X148410605Y-74160531D01*
X148150263Y-74021375D01*
X147867776Y-73935684D01*
X147574000Y-73906749D01*
X147280223Y-73935684D01*
X146997736Y-74021375D01*
X146737394Y-74160531D01*
X146509203Y-74347803D01*
X146321931Y-74575995D01*
X146304000Y-74609541D01*
X146286069Y-74575994D01*
X146098797Y-74347803D01*
X145870605Y-74160531D01*
X145610263Y-74021375D01*
X145327776Y-73935684D01*
X145034000Y-73906749D01*
X144740223Y-73935684D01*
X144457736Y-74021375D01*
X144197394Y-74160531D01*
X143969203Y-74347803D01*
X143781931Y-74575995D01*
X143764000Y-74609541D01*
X143746069Y-74575994D01*
X143558797Y-74347803D01*
X143330605Y-74160531D01*
X143070263Y-74021375D01*
X142787776Y-73935684D01*
X142494000Y-73906749D01*
X142200223Y-73935684D01*
X141917736Y-74021375D01*
X141657394Y-74160531D01*
X141429203Y-74347803D01*
X141241931Y-74575995D01*
X141224000Y-74609541D01*
X141206069Y-74575994D01*
X141018797Y-74347803D01*
X140790605Y-74160531D01*
X140530263Y-74021375D01*
X140247776Y-73935684D01*
X139954000Y-73906749D01*
X139660223Y-73935684D01*
X139377736Y-74021375D01*
X139117394Y-74160531D01*
X138889203Y-74347803D01*
X138701931Y-74575995D01*
X138680576Y-74615947D01*
X138532486Y-74413271D01*
X138316035Y-74214267D01*
X138064919Y-74061314D01*
X137788789Y-73960291D01*
X137773026Y-73957642D01*
X137541000Y-74078783D01*
X137287000Y-74078783D01*
X137054974Y-73957642D01*
X137039211Y-73960291D01*
X136763081Y-74061314D01*
X136511965Y-74214267D01*
X136295514Y-74413271D01*
X136147424Y-74615947D01*
X136126069Y-74575994D01*
X135938797Y-74347803D01*
X135710605Y-74160531D01*
X135450263Y-74021375D01*
X135167776Y-73935684D01*
X134874000Y-73906749D01*
X134580223Y-73935684D01*
X134297736Y-74021375D01*
X134037394Y-74160531D01*
X133809203Y-74347803D01*
X133621931Y-74575995D01*
X133604000Y-74609541D01*
X133586069Y-74575994D01*
X133398797Y-74347803D01*
X133170605Y-74160531D01*
X132910263Y-74021375D01*
X132627776Y-73935684D01*
X132334000Y-73906749D01*
X132040223Y-73935684D01*
X131757736Y-74021375D01*
X131497394Y-74160531D01*
X131269203Y-74347803D01*
X131081931Y-74575995D01*
X131064000Y-74609541D01*
X131046069Y-74575994D01*
X130858797Y-74347803D01*
X130630605Y-74160531D01*
X130370263Y-74021375D01*
X130087776Y-73935684D01*
X129794000Y-73906749D01*
X129500223Y-73935684D01*
X129217736Y-74021375D01*
X128957394Y-74160531D01*
X128729203Y-74347803D01*
X128657001Y-74435781D01*
X128601464Y-74301702D01*
X128309594Y-73864887D01*
X128179707Y-73735000D01*
X175219909Y-73735000D01*
X176328001Y-74843093D01*
X176328000Y-85944125D01*
X176324565Y-85979000D01*
X176328000Y-86013875D01*
X176328000Y-86013876D01*
X176338273Y-86118183D01*
X176378872Y-86252019D01*
X176444800Y-86375362D01*
X176533525Y-86483474D01*
X176560617Y-86505708D01*
X178868001Y-88813093D01*
X178868001Y-88863294D01*
X178738113Y-88733406D01*
X178301298Y-88441536D01*
X177815935Y-88240492D01*
X177300677Y-88138000D01*
X176775323Y-88138000D01*
X176260065Y-88240492D01*
X175774702Y-88441536D01*
X175337887Y-88733406D01*
X174966406Y-89104887D01*
X174674536Y-89541702D01*
X174473492Y-90027065D01*
X174371000Y-90542323D01*
X174371000Y-91067677D01*
X174473492Y-91582935D01*
X174674536Y-92068298D01*
X174966406Y-92505113D01*
X175337887Y-92876594D01*
X175774702Y-93168464D01*
X176260065Y-93369508D01*
X176775323Y-93472000D01*
X177300677Y-93472000D01*
X177815935Y-93369508D01*
X178301298Y-93168464D01*
X178738113Y-92876594D01*
X178868001Y-92746706D01*
X178868001Y-98515294D01*
X178738113Y-98385406D01*
X178301298Y-98093536D01*
X177815935Y-97892492D01*
X177300677Y-97790000D01*
X176775323Y-97790000D01*
X176260065Y-97892492D01*
X175774702Y-98093536D01*
X175337887Y-98385406D01*
X174966406Y-98756887D01*
X174674536Y-99193702D01*
X174473492Y-99679065D01*
X174371000Y-100194323D01*
X174371000Y-100719677D01*
X174473492Y-101234935D01*
X174674536Y-101720298D01*
X174966406Y-102157113D01*
X175337887Y-102528594D01*
X175774702Y-102820464D01*
X176260065Y-103021508D01*
X176775323Y-103124000D01*
X177300677Y-103124000D01*
X177815935Y-103021508D01*
X178301298Y-102820464D01*
X178738113Y-102528594D01*
X178868001Y-102398706D01*
X178868000Y-106135293D01*
X178738113Y-106005406D01*
X178301298Y-105713536D01*
X177815935Y-105512492D01*
X177300677Y-105410000D01*
X176775323Y-105410000D01*
X176260065Y-105512492D01*
X175774702Y-105713536D01*
X175337887Y-106005406D01*
X174966406Y-106376887D01*
X174674536Y-106813702D01*
X174473492Y-107299065D01*
X174371000Y-107814323D01*
X174371000Y-108339677D01*
X174473492Y-108854935D01*
X174674536Y-109340298D01*
X174966406Y-109777113D01*
X175337887Y-110148594D01*
X175774702Y-110440464D01*
X176260065Y-110641508D01*
X176775323Y-110744000D01*
X177300677Y-110744000D01*
X177815935Y-110641508D01*
X178301298Y-110440464D01*
X178738113Y-110148594D01*
X178868000Y-110018707D01*
X178868000Y-116803293D01*
X178738113Y-116673406D01*
X178301298Y-116381536D01*
X177815935Y-116180492D01*
X177300677Y-116078000D01*
X176775323Y-116078000D01*
X176260065Y-116180492D01*
X175774702Y-116381536D01*
X175337887Y-116673406D01*
X174966406Y-117044887D01*
X174674536Y-117481702D01*
X174473492Y-117967065D01*
X174371000Y-118482323D01*
X174371000Y-119007677D01*
X174473492Y-119522935D01*
X174674536Y-120008298D01*
X174966406Y-120445113D01*
X175337887Y-120816594D01*
X175774702Y-121108464D01*
X176260065Y-121309508D01*
X176775323Y-121412000D01*
X177300677Y-121412000D01*
X177815935Y-121309508D01*
X178301298Y-121108464D01*
X178738113Y-120816594D01*
X178868000Y-120686707D01*
X178868000Y-120990908D01*
X176560617Y-123298292D01*
X176533526Y-123320525D01*
X176511293Y-123347616D01*
X176444801Y-123428637D01*
X176378872Y-123551981D01*
X176338274Y-123685816D01*
X176324565Y-123825000D01*
X176328001Y-123859885D01*
X176328000Y-125655000D01*
X126909707Y-125655000D01*
X127039594Y-125525113D01*
X127331464Y-125088298D01*
X127532508Y-124602935D01*
X127635000Y-124087677D01*
X127635000Y-123598982D01*
X137439400Y-123598982D01*
X137439400Y-124051019D01*
X137461084Y-124271177D01*
X137546775Y-124553664D01*
X137685931Y-124814006D01*
X137873203Y-125042197D01*
X138101395Y-125229469D01*
X138361737Y-125368625D01*
X138644224Y-125454316D01*
X138938000Y-125483251D01*
X139231777Y-125454316D01*
X139514264Y-125368625D01*
X139774606Y-125229469D01*
X140002797Y-125042197D01*
X140190069Y-124814006D01*
X140208000Y-124780459D01*
X140225931Y-124814006D01*
X140413203Y-125042197D01*
X140641395Y-125229469D01*
X140901737Y-125368625D01*
X141184224Y-125454316D01*
X141478000Y-125483251D01*
X141771777Y-125454316D01*
X142054264Y-125368625D01*
X142314606Y-125229469D01*
X142542797Y-125042197D01*
X142730069Y-124814006D01*
X142748000Y-124780459D01*
X142765931Y-124814006D01*
X142953203Y-125042197D01*
X143181395Y-125229469D01*
X143441737Y-125368625D01*
X143724224Y-125454316D01*
X144018000Y-125483251D01*
X144311777Y-125454316D01*
X144594264Y-125368625D01*
X144854606Y-125229469D01*
X145082797Y-125042197D01*
X145270069Y-124814006D01*
X145288000Y-124780459D01*
X145305931Y-124814006D01*
X145493203Y-125042197D01*
X145721395Y-125229469D01*
X145981737Y-125368625D01*
X146264224Y-125454316D01*
X146558000Y-125483251D01*
X146851777Y-125454316D01*
X147134264Y-125368625D01*
X147394606Y-125229469D01*
X147622797Y-125042197D01*
X147810069Y-124814006D01*
X147828000Y-124780459D01*
X147845931Y-124814006D01*
X148033203Y-125042197D01*
X148261395Y-125229469D01*
X148521737Y-125368625D01*
X148804224Y-125454316D01*
X149098000Y-125483251D01*
X149391777Y-125454316D01*
X149674264Y-125368625D01*
X149934606Y-125229469D01*
X150162797Y-125042197D01*
X150350069Y-124814006D01*
X150371424Y-124774053D01*
X150519514Y-124976729D01*
X150735965Y-125175733D01*
X150987081Y-125328686D01*
X151263211Y-125429709D01*
X151278974Y-125432358D01*
X151511000Y-125311217D01*
X151511000Y-123952000D01*
X151765000Y-123952000D01*
X151765000Y-125311217D01*
X151997026Y-125432358D01*
X152012789Y-125429709D01*
X152288919Y-125328686D01*
X152540035Y-125175733D01*
X152756486Y-124976729D01*
X152908000Y-124769367D01*
X153059514Y-124976729D01*
X153275965Y-125175733D01*
X153527081Y-125328686D01*
X153803211Y-125429709D01*
X153818974Y-125432358D01*
X154051000Y-125311217D01*
X154051000Y-123952000D01*
X151765000Y-123952000D01*
X151511000Y-123952000D01*
X151491000Y-123952000D01*
X151491000Y-123698000D01*
X151511000Y-123698000D01*
X151511000Y-122338783D01*
X151765000Y-122338783D01*
X151765000Y-123698000D01*
X154051000Y-123698000D01*
X154051000Y-122338783D01*
X154305000Y-122338783D01*
X154305000Y-123698000D01*
X154325000Y-123698000D01*
X154325000Y-123952000D01*
X154305000Y-123952000D01*
X154305000Y-125311217D01*
X154537026Y-125432358D01*
X154552789Y-125429709D01*
X154828919Y-125328686D01*
X155080035Y-125175733D01*
X155296486Y-124976729D01*
X155444576Y-124774053D01*
X155465931Y-124814006D01*
X155653203Y-125042197D01*
X155881395Y-125229469D01*
X156141737Y-125368625D01*
X156424224Y-125454316D01*
X156718000Y-125483251D01*
X157011777Y-125454316D01*
X157294264Y-125368625D01*
X157554606Y-125229469D01*
X157782797Y-125042197D01*
X157970069Y-124814006D01*
X158109225Y-124553663D01*
X158194916Y-124271176D01*
X158216600Y-124051018D01*
X158216600Y-123598982D01*
X160299400Y-123598982D01*
X160299400Y-124051019D01*
X160321084Y-124271177D01*
X160406775Y-124553664D01*
X160545931Y-124814006D01*
X160733203Y-125042197D01*
X160961395Y-125229469D01*
X161221737Y-125368625D01*
X161504224Y-125454316D01*
X161798000Y-125483251D01*
X162091777Y-125454316D01*
X162374264Y-125368625D01*
X162634606Y-125229469D01*
X162862797Y-125042197D01*
X163050069Y-124814006D01*
X163068000Y-124780459D01*
X163085931Y-124814006D01*
X163273203Y-125042197D01*
X163501395Y-125229469D01*
X163761737Y-125368625D01*
X164044224Y-125454316D01*
X164338000Y-125483251D01*
X164631777Y-125454316D01*
X164914264Y-125368625D01*
X165174606Y-125229469D01*
X165402797Y-125042197D01*
X165590069Y-124814006D01*
X165608000Y-124780459D01*
X165625931Y-124814006D01*
X165813203Y-125042197D01*
X166041395Y-125229469D01*
X166301737Y-125368625D01*
X166584224Y-125454316D01*
X166878000Y-125483251D01*
X167171777Y-125454316D01*
X167454264Y-125368625D01*
X167714606Y-125229469D01*
X167942797Y-125042197D01*
X168130069Y-124814006D01*
X168148000Y-124780459D01*
X168165931Y-124814006D01*
X168353203Y-125042197D01*
X168581395Y-125229469D01*
X168841737Y-125368625D01*
X169124224Y-125454316D01*
X169418000Y-125483251D01*
X169711777Y-125454316D01*
X169994264Y-125368625D01*
X170254606Y-125229469D01*
X170482797Y-125042197D01*
X170670069Y-124814006D01*
X170688000Y-124780459D01*
X170705931Y-124814006D01*
X170893203Y-125042197D01*
X171121395Y-125229469D01*
X171381737Y-125368625D01*
X171664224Y-125454316D01*
X171958000Y-125483251D01*
X172251777Y-125454316D01*
X172534264Y-125368625D01*
X172794606Y-125229469D01*
X173022797Y-125042197D01*
X173210069Y-124814006D01*
X173228000Y-124780459D01*
X173245931Y-124814006D01*
X173433203Y-125042197D01*
X173661395Y-125229469D01*
X173921737Y-125368625D01*
X174204224Y-125454316D01*
X174498000Y-125483251D01*
X174791777Y-125454316D01*
X175074264Y-125368625D01*
X175334606Y-125229469D01*
X175562797Y-125042197D01*
X175750069Y-124814006D01*
X175889225Y-124553663D01*
X175974916Y-124271176D01*
X175996600Y-124051018D01*
X175996600Y-123598981D01*
X175974916Y-123378823D01*
X175889225Y-123096336D01*
X175750069Y-122835994D01*
X175562797Y-122607803D01*
X175334605Y-122420531D01*
X175074263Y-122281375D01*
X174791776Y-122195684D01*
X174498000Y-122166749D01*
X174204223Y-122195684D01*
X173921736Y-122281375D01*
X173661394Y-122420531D01*
X173433203Y-122607803D01*
X173245931Y-122835995D01*
X173228000Y-122869541D01*
X173210069Y-122835994D01*
X173022797Y-122607803D01*
X172794605Y-122420531D01*
X172534263Y-122281375D01*
X172251776Y-122195684D01*
X171958000Y-122166749D01*
X171664223Y-122195684D01*
X171381736Y-122281375D01*
X171121394Y-122420531D01*
X170893203Y-122607803D01*
X170705931Y-122835995D01*
X170688000Y-122869541D01*
X170670069Y-122835994D01*
X170482797Y-122607803D01*
X170254605Y-122420531D01*
X169994263Y-122281375D01*
X169711776Y-122195684D01*
X169418000Y-122166749D01*
X169124223Y-122195684D01*
X168841736Y-122281375D01*
X168581394Y-122420531D01*
X168353203Y-122607803D01*
X168165931Y-122835995D01*
X168148000Y-122869541D01*
X168130069Y-122835994D01*
X167942797Y-122607803D01*
X167714605Y-122420531D01*
X167454263Y-122281375D01*
X167171776Y-122195684D01*
X166878000Y-122166749D01*
X166584223Y-122195684D01*
X166301736Y-122281375D01*
X166041394Y-122420531D01*
X165813203Y-122607803D01*
X165625931Y-122835995D01*
X165608000Y-122869541D01*
X165590069Y-122835994D01*
X165402797Y-122607803D01*
X165174605Y-122420531D01*
X164914263Y-122281375D01*
X164631776Y-122195684D01*
X164338000Y-122166749D01*
X164044223Y-122195684D01*
X163761736Y-122281375D01*
X163501394Y-122420531D01*
X163273203Y-122607803D01*
X163085931Y-122835995D01*
X163068000Y-122869541D01*
X163050069Y-122835994D01*
X162862797Y-122607803D01*
X162634605Y-122420531D01*
X162374263Y-122281375D01*
X162091776Y-122195684D01*
X161798000Y-122166749D01*
X161504223Y-122195684D01*
X161221736Y-122281375D01*
X160961394Y-122420531D01*
X160733203Y-122607803D01*
X160545931Y-122835995D01*
X160406775Y-123096337D01*
X160321084Y-123378824D01*
X160299400Y-123598982D01*
X158216600Y-123598982D01*
X158216600Y-123598981D01*
X158194916Y-123378823D01*
X158109225Y-123096336D01*
X157970069Y-122835994D01*
X157782797Y-122607803D01*
X157554605Y-122420531D01*
X157294263Y-122281375D01*
X157011776Y-122195684D01*
X156718000Y-122166749D01*
X156424223Y-122195684D01*
X156141736Y-122281375D01*
X155881394Y-122420531D01*
X155653203Y-122607803D01*
X155465931Y-122835995D01*
X155444576Y-122875947D01*
X155296486Y-122673271D01*
X155080035Y-122474267D01*
X154828919Y-122321314D01*
X154552789Y-122220291D01*
X154537026Y-122217642D01*
X154305000Y-122338783D01*
X154051000Y-122338783D01*
X153818974Y-122217642D01*
X153803211Y-122220291D01*
X153527081Y-122321314D01*
X153275965Y-122474267D01*
X153059514Y-122673271D01*
X152908000Y-122880633D01*
X152756486Y-122673271D01*
X152540035Y-122474267D01*
X152288919Y-122321314D01*
X152012789Y-122220291D01*
X151997026Y-122217642D01*
X151765000Y-122338783D01*
X151511000Y-122338783D01*
X151278974Y-122217642D01*
X151263211Y-122220291D01*
X150987081Y-122321314D01*
X150735965Y-122474267D01*
X150519514Y-122673271D01*
X150371424Y-122875947D01*
X150350069Y-122835994D01*
X150162797Y-122607803D01*
X149934605Y-122420531D01*
X149674263Y-122281375D01*
X149391776Y-122195684D01*
X149098000Y-122166749D01*
X148804223Y-122195684D01*
X148521736Y-122281375D01*
X148261394Y-122420531D01*
X148033203Y-122607803D01*
X147845931Y-122835995D01*
X147828000Y-122869541D01*
X147810069Y-122835994D01*
X147622797Y-122607803D01*
X147394605Y-122420531D01*
X147134263Y-122281375D01*
X146851776Y-122195684D01*
X146558000Y-122166749D01*
X146264223Y-122195684D01*
X145981736Y-122281375D01*
X145721394Y-122420531D01*
X145493203Y-122607803D01*
X145305931Y-122835995D01*
X145288000Y-122869541D01*
X145270069Y-122835994D01*
X145082797Y-122607803D01*
X144854605Y-122420531D01*
X144594263Y-122281375D01*
X144311776Y-122195684D01*
X144018000Y-122166749D01*
X143724223Y-122195684D01*
X143441736Y-122281375D01*
X143181394Y-122420531D01*
X142953203Y-122607803D01*
X142765931Y-122835995D01*
X142748000Y-122869541D01*
X142730069Y-122835994D01*
X142542797Y-122607803D01*
X142314605Y-122420531D01*
X142054263Y-122281375D01*
X141771776Y-122195684D01*
X141478000Y-122166749D01*
X141184223Y-122195684D01*
X140901736Y-122281375D01*
X140641394Y-122420531D01*
X140413203Y-122607803D01*
X140225931Y-122835995D01*
X140208000Y-122869541D01*
X140190069Y-122835994D01*
X140002797Y-122607803D01*
X139774605Y-122420531D01*
X139514263Y-122281375D01*
X139231776Y-122195684D01*
X138938000Y-122166749D01*
X138644223Y-122195684D01*
X138361736Y-122281375D01*
X138101394Y-122420531D01*
X137873203Y-122607803D01*
X137685931Y-122835995D01*
X137546775Y-123096337D01*
X137461084Y-123378824D01*
X137439400Y-123598982D01*
X127635000Y-123598982D01*
X127635000Y-123562323D01*
X127532508Y-123047065D01*
X127331464Y-122561702D01*
X127039594Y-122124887D01*
X126668113Y-121753406D01*
X126231298Y-121461536D01*
X125745935Y-121260492D01*
X125230677Y-121158000D01*
X124705323Y-121158000D01*
X124190065Y-121260492D01*
X123704702Y-121461536D01*
X123267887Y-121753406D01*
X122896406Y-122124887D01*
X122604536Y-122561702D01*
X122403492Y-123047065D01*
X122301000Y-123562323D01*
X122301000Y-124087677D01*
X122403492Y-124602935D01*
X122604536Y-125088298D01*
X122896406Y-125525113D01*
X123026293Y-125655000D01*
X111708000Y-125655000D01*
X111708000Y-120137514D01*
X160463000Y-120137514D01*
X160463000Y-120400486D01*
X160514304Y-120658405D01*
X160614939Y-120901359D01*
X160761038Y-121120013D01*
X160946987Y-121305962D01*
X161165641Y-121452061D01*
X161408595Y-121552696D01*
X161666514Y-121604000D01*
X161929486Y-121604000D01*
X162187405Y-121552696D01*
X162430359Y-121452061D01*
X162649013Y-121305962D01*
X162834962Y-121120013D01*
X162981061Y-120901359D01*
X163081696Y-120658405D01*
X163133000Y-120400486D01*
X163133000Y-120137514D01*
X163081696Y-119879595D01*
X162981061Y-119636641D01*
X162834962Y-119417987D01*
X162649013Y-119232038D01*
X162430359Y-119085939D01*
X162187405Y-118985304D01*
X161929486Y-118934000D01*
X161666514Y-118934000D01*
X161408595Y-118985304D01*
X161165641Y-119085939D01*
X160946987Y-119232038D01*
X160761038Y-119417987D01*
X160614939Y-119636641D01*
X160514304Y-119879595D01*
X160463000Y-120137514D01*
X111708000Y-120137514D01*
X111708000Y-117059967D01*
X135883000Y-117059967D01*
X135883000Y-117382033D01*
X135945832Y-117697912D01*
X136069082Y-117995463D01*
X136248013Y-118263252D01*
X136475748Y-118490987D01*
X136743537Y-118669918D01*
X137041088Y-118793168D01*
X137356967Y-118856000D01*
X137679033Y-118856000D01*
X137994912Y-118793168D01*
X138292463Y-118669918D01*
X138560252Y-118490987D01*
X138787987Y-118263252D01*
X138966918Y-117995463D01*
X139090168Y-117697912D01*
X139153000Y-117382033D01*
X139153000Y-117059967D01*
X142383000Y-117059967D01*
X142383000Y-117382033D01*
X142445832Y-117697912D01*
X142569082Y-117995463D01*
X142748013Y-118263252D01*
X142975748Y-118490987D01*
X143243537Y-118669918D01*
X143541088Y-118793168D01*
X143856967Y-118856000D01*
X144179033Y-118856000D01*
X144494912Y-118793168D01*
X144792463Y-118669918D01*
X145060252Y-118490987D01*
X145287987Y-118263252D01*
X145466918Y-117995463D01*
X145590168Y-117697912D01*
X145653000Y-117382033D01*
X145653000Y-117059967D01*
X145590168Y-116744088D01*
X145466918Y-116446537D01*
X145287987Y-116178748D01*
X145060252Y-115951013D01*
X144792463Y-115772082D01*
X144494912Y-115648832D01*
X144179033Y-115586000D01*
X143856967Y-115586000D01*
X143541088Y-115648832D01*
X143243537Y-115772082D01*
X142975748Y-115951013D01*
X142748013Y-116178748D01*
X142569082Y-116446537D01*
X142445832Y-116744088D01*
X142383000Y-117059967D01*
X139153000Y-117059967D01*
X139090168Y-116744088D01*
X138966918Y-116446537D01*
X138787987Y-116178748D01*
X138560252Y-115951013D01*
X138292463Y-115772082D01*
X137994912Y-115648832D01*
X137679033Y-115586000D01*
X137356967Y-115586000D01*
X137041088Y-115648832D01*
X136743537Y-115772082D01*
X136475748Y-115951013D01*
X136248013Y-116178748D01*
X136069082Y-116446537D01*
X135945832Y-116744088D01*
X135883000Y-117059967D01*
X111708000Y-117059967D01*
X111708000Y-115057514D01*
X160463000Y-115057514D01*
X160463000Y-115320486D01*
X160514304Y-115578405D01*
X160614939Y-115821359D01*
X160761038Y-116040013D01*
X160946987Y-116225962D01*
X161165641Y-116372061D01*
X161408595Y-116472696D01*
X161666514Y-116524000D01*
X161929486Y-116524000D01*
X162187405Y-116472696D01*
X162430359Y-116372061D01*
X162649013Y-116225962D01*
X162834962Y-116040013D01*
X162981061Y-115821359D01*
X163081696Y-115578405D01*
X163133000Y-115320486D01*
X163133000Y-115057514D01*
X163081696Y-114799595D01*
X162981061Y-114556641D01*
X162834962Y-114337987D01*
X162649013Y-114152038D01*
X162430359Y-114005939D01*
X162187405Y-113905304D01*
X161929486Y-113854000D01*
X161666514Y-113854000D01*
X161408595Y-113905304D01*
X161165641Y-114005939D01*
X160946987Y-114152038D01*
X160761038Y-114337987D01*
X160614939Y-114556641D01*
X160514304Y-114799595D01*
X160463000Y-115057514D01*
X111708000Y-115057514D01*
X111708000Y-113856413D01*
X136562192Y-113856413D01*
X136657956Y-114120814D01*
X136947571Y-114261704D01*
X137259108Y-114343384D01*
X137580595Y-114362718D01*
X137899675Y-114318961D01*
X138204088Y-114213795D01*
X138378044Y-114120814D01*
X138473808Y-113856413D01*
X143062192Y-113856413D01*
X143157956Y-114120814D01*
X143447571Y-114261704D01*
X143759108Y-114343384D01*
X144080595Y-114362718D01*
X144399675Y-114318961D01*
X144704088Y-114213795D01*
X144878044Y-114120814D01*
X144973808Y-113856413D01*
X144018000Y-112900605D01*
X143062192Y-113856413D01*
X138473808Y-113856413D01*
X137518000Y-112900605D01*
X136562192Y-113856413D01*
X111708000Y-113856413D01*
X111708000Y-112783595D01*
X135876282Y-112783595D01*
X135920039Y-113102675D01*
X136025205Y-113407088D01*
X136118186Y-113581044D01*
X136382587Y-113676808D01*
X137338395Y-112721000D01*
X137697605Y-112721000D01*
X138653413Y-113676808D01*
X138917814Y-113581044D01*
X139058704Y-113291429D01*
X139140384Y-112979892D01*
X139152189Y-112783595D01*
X142376282Y-112783595D01*
X142420039Y-113102675D01*
X142525205Y-113407088D01*
X142618186Y-113581044D01*
X142882587Y-113676808D01*
X143838395Y-112721000D01*
X144197605Y-112721000D01*
X145153413Y-113676808D01*
X145417814Y-113581044D01*
X145558704Y-113291429D01*
X145640384Y-112979892D01*
X145659718Y-112658405D01*
X145615961Y-112339325D01*
X145510795Y-112034912D01*
X145417814Y-111860956D01*
X145153413Y-111765192D01*
X144197605Y-112721000D01*
X143838395Y-112721000D01*
X142882587Y-111765192D01*
X142618186Y-111860956D01*
X142477296Y-112150571D01*
X142395616Y-112462108D01*
X142376282Y-112783595D01*
X139152189Y-112783595D01*
X139159718Y-112658405D01*
X139115961Y-112339325D01*
X139010795Y-112034912D01*
X138917814Y-111860956D01*
X138653413Y-111765192D01*
X137697605Y-112721000D01*
X137338395Y-112721000D01*
X136382587Y-111765192D01*
X136118186Y-111860956D01*
X135977296Y-112150571D01*
X135895616Y-112462108D01*
X135876282Y-112783595D01*
X111708000Y-112783595D01*
X111708000Y-111585587D01*
X136562192Y-111585587D01*
X137518000Y-112541395D01*
X138473808Y-111585587D01*
X143062192Y-111585587D01*
X144018000Y-112541395D01*
X144973808Y-111585587D01*
X144878044Y-111321186D01*
X144588429Y-111180296D01*
X144276892Y-111098616D01*
X143955405Y-111079282D01*
X143636325Y-111123039D01*
X143331912Y-111228205D01*
X143157956Y-111321186D01*
X143062192Y-111585587D01*
X138473808Y-111585587D01*
X138378044Y-111321186D01*
X138088429Y-111180296D01*
X137776892Y-111098616D01*
X137455405Y-111079282D01*
X137136325Y-111123039D01*
X136831912Y-111228205D01*
X136657956Y-111321186D01*
X136562192Y-111585587D01*
X111708000Y-111585587D01*
X111708000Y-110473203D01*
X164402000Y-110473203D01*
X164402000Y-110760797D01*
X164458107Y-111042866D01*
X164568165Y-111308569D01*
X164727944Y-111547696D01*
X164931304Y-111751056D01*
X165170431Y-111910835D01*
X165436134Y-112020893D01*
X165718203Y-112077000D01*
X166005797Y-112077000D01*
X166287866Y-112020893D01*
X166553569Y-111910835D01*
X166792696Y-111751056D01*
X166996056Y-111547696D01*
X167155835Y-111308569D01*
X167265893Y-111042866D01*
X167322000Y-110760797D01*
X167322000Y-110473203D01*
X167265893Y-110191134D01*
X167155835Y-109925431D01*
X166996056Y-109686304D01*
X166792696Y-109482944D01*
X166591424Y-109348459D01*
X166618337Y-109334073D01*
X166692946Y-109087551D01*
X165862000Y-108256605D01*
X165031054Y-109087551D01*
X165105663Y-109334073D01*
X165133977Y-109347523D01*
X164931304Y-109482944D01*
X164727944Y-109686304D01*
X164568165Y-109925431D01*
X164458107Y-110191134D01*
X164402000Y-110473203D01*
X111708000Y-110473203D01*
X111708000Y-108146521D01*
X164396583Y-108146521D01*
X164438303Y-108431074D01*
X164534735Y-108702020D01*
X164604927Y-108833337D01*
X164851449Y-108907946D01*
X165682395Y-108077000D01*
X166041605Y-108077000D01*
X166872551Y-108907946D01*
X167119073Y-108833337D01*
X167242473Y-108573561D01*
X167312823Y-108294703D01*
X167327417Y-108007479D01*
X167285697Y-107722926D01*
X167189265Y-107451980D01*
X167119073Y-107320663D01*
X166872551Y-107246054D01*
X166041605Y-108077000D01*
X165682395Y-108077000D01*
X164851449Y-107246054D01*
X164604927Y-107320663D01*
X164481527Y-107580439D01*
X164411177Y-107859297D01*
X164396583Y-108146521D01*
X111708000Y-108146521D01*
X111708000Y-106529702D01*
X153364903Y-106529702D01*
X153436486Y-106773671D01*
X153691996Y-106894571D01*
X153966184Y-106963300D01*
X154248512Y-106977217D01*
X154528130Y-106935787D01*
X154794292Y-106840603D01*
X154919514Y-106773671D01*
X154991097Y-106529702D01*
X154178000Y-105716605D01*
X153364903Y-106529702D01*
X111708000Y-106529702D01*
X111708000Y-105607512D01*
X152737783Y-105607512D01*
X152779213Y-105887130D01*
X152874397Y-106153292D01*
X152941329Y-106278514D01*
X153185298Y-106350097D01*
X153998395Y-105537000D01*
X154357605Y-105537000D01*
X155170702Y-106350097D01*
X155414671Y-106278514D01*
X155535571Y-106023004D01*
X155604300Y-105748816D01*
X155618217Y-105466488D01*
X155607724Y-105395665D01*
X157743000Y-105395665D01*
X157743000Y-105678335D01*
X157798147Y-105955574D01*
X157906320Y-106216727D01*
X158063363Y-106451759D01*
X158263241Y-106651637D01*
X158498273Y-106808680D01*
X158759426Y-106916853D01*
X159036665Y-106972000D01*
X159319335Y-106972000D01*
X159596574Y-106916853D01*
X159857727Y-106808680D01*
X160092759Y-106651637D01*
X160292637Y-106451759D01*
X160449680Y-106216727D01*
X160557853Y-105955574D01*
X160613000Y-105678335D01*
X160613000Y-105395665D01*
X160557853Y-105118426D01*
X160449680Y-104857273D01*
X160292637Y-104622241D01*
X160092759Y-104422363D01*
X159857727Y-104265320D01*
X159596574Y-104157147D01*
X159319335Y-104102000D01*
X159036665Y-104102000D01*
X158759426Y-104157147D01*
X158498273Y-104265320D01*
X158263241Y-104422363D01*
X158063363Y-104622241D01*
X157906320Y-104857273D01*
X157798147Y-105118426D01*
X157743000Y-105395665D01*
X155607724Y-105395665D01*
X155576787Y-105186870D01*
X155481603Y-104920708D01*
X155414671Y-104795486D01*
X155170702Y-104723903D01*
X154357605Y-105537000D01*
X153998395Y-105537000D01*
X153185298Y-104723903D01*
X152941329Y-104795486D01*
X152820429Y-105050996D01*
X152751700Y-105325184D01*
X152737783Y-105607512D01*
X111708000Y-105607512D01*
X111708000Y-104544298D01*
X153364903Y-104544298D01*
X154178000Y-105357395D01*
X154991097Y-104544298D01*
X154919514Y-104300329D01*
X154664004Y-104179429D01*
X154389816Y-104110700D01*
X154107488Y-104096783D01*
X153827870Y-104138213D01*
X153561708Y-104233397D01*
X153436486Y-104300329D01*
X153364903Y-104544298D01*
X111708000Y-104544298D01*
X111708000Y-103075438D01*
X142303505Y-103075438D01*
X142342605Y-103315549D01*
X142427798Y-103543418D01*
X142468652Y-103619852D01*
X142692236Y-103667159D01*
X143362395Y-102997000D01*
X142692236Y-102326841D01*
X142468652Y-102374148D01*
X142367763Y-102595516D01*
X142312000Y-102832313D01*
X142303505Y-103075438D01*
X111708000Y-103075438D01*
X111708000Y-102147236D01*
X142871841Y-102147236D01*
X143542000Y-102817395D01*
X143556143Y-102803253D01*
X143735748Y-102982858D01*
X143721605Y-102997000D01*
X143735748Y-103011143D01*
X143556143Y-103190748D01*
X143542000Y-103176605D01*
X142871841Y-103846764D01*
X142919148Y-104070348D01*
X143140516Y-104171237D01*
X143377313Y-104227000D01*
X143620438Y-104235495D01*
X143860549Y-104196395D01*
X144088418Y-104111202D01*
X144164852Y-104070348D01*
X144212158Y-103846766D01*
X144329264Y-103963872D01*
X144387142Y-103905994D01*
X144411463Y-103951494D01*
X144490815Y-104048185D01*
X144587506Y-104127537D01*
X144697820Y-104186502D01*
X144817518Y-104222812D01*
X144942000Y-104235072D01*
X146142000Y-104235072D01*
X146266482Y-104222812D01*
X146386180Y-104186502D01*
X146496494Y-104127537D01*
X146593185Y-104048185D01*
X146672537Y-103951494D01*
X146731502Y-103841180D01*
X146767812Y-103721482D01*
X146780072Y-103597000D01*
X146780072Y-102397000D01*
X146767812Y-102272518D01*
X146731502Y-102152820D01*
X146672537Y-102042506D01*
X146593185Y-101945815D01*
X146496494Y-101866463D01*
X146386180Y-101807498D01*
X146266482Y-101771188D01*
X146142000Y-101758928D01*
X144942000Y-101758928D01*
X144817518Y-101771188D01*
X144697820Y-101807498D01*
X144587506Y-101866463D01*
X144490815Y-101945815D01*
X144411463Y-102042506D01*
X144387142Y-102088006D01*
X144329264Y-102030128D01*
X144212158Y-102147234D01*
X144164852Y-101923652D01*
X143943484Y-101822763D01*
X143706687Y-101767000D01*
X143463562Y-101758505D01*
X143223451Y-101797605D01*
X142995582Y-101882798D01*
X142919148Y-101923652D01*
X142871841Y-102147236D01*
X111708000Y-102147236D01*
X111708000Y-101449702D01*
X153364903Y-101449702D01*
X153436486Y-101693671D01*
X153691996Y-101814571D01*
X153966184Y-101883300D01*
X154248512Y-101897217D01*
X154528130Y-101855787D01*
X154794292Y-101760603D01*
X154919514Y-101693671D01*
X154991097Y-101449702D01*
X154178000Y-100636605D01*
X153364903Y-101449702D01*
X111708000Y-101449702D01*
X111708000Y-100527512D01*
X152737783Y-100527512D01*
X152779213Y-100807130D01*
X152874397Y-101073292D01*
X152941329Y-101198514D01*
X153185298Y-101270097D01*
X153998395Y-100457000D01*
X154357605Y-100457000D01*
X155170702Y-101270097D01*
X155414671Y-101198514D01*
X155535571Y-100943004D01*
X155604300Y-100668816D01*
X155618217Y-100386488D01*
X155607724Y-100315665D01*
X157743000Y-100315665D01*
X157743000Y-100598335D01*
X157798147Y-100875574D01*
X157906320Y-101136727D01*
X158063363Y-101371759D01*
X158263241Y-101571637D01*
X158498273Y-101728680D01*
X158759426Y-101836853D01*
X159036665Y-101892000D01*
X159319335Y-101892000D01*
X159596574Y-101836853D01*
X159857727Y-101728680D01*
X160092759Y-101571637D01*
X160292637Y-101371759D01*
X160449680Y-101136727D01*
X160557853Y-100875574D01*
X160613000Y-100598335D01*
X160613000Y-100315665D01*
X160557853Y-100038426D01*
X160449680Y-99777273D01*
X160292637Y-99542241D01*
X160092759Y-99342363D01*
X159857727Y-99185320D01*
X159596574Y-99077147D01*
X159319335Y-99022000D01*
X159036665Y-99022000D01*
X158759426Y-99077147D01*
X158498273Y-99185320D01*
X158263241Y-99342363D01*
X158063363Y-99542241D01*
X157906320Y-99777273D01*
X157798147Y-100038426D01*
X157743000Y-100315665D01*
X155607724Y-100315665D01*
X155576787Y-100106870D01*
X155481603Y-99840708D01*
X155414671Y-99715486D01*
X155170702Y-99643903D01*
X154357605Y-100457000D01*
X153998395Y-100457000D01*
X153185298Y-99643903D01*
X152941329Y-99715486D01*
X152820429Y-99970996D01*
X152751700Y-100245184D01*
X152737783Y-100527512D01*
X111708000Y-100527512D01*
X111708000Y-99464298D01*
X153364903Y-99464298D01*
X154178000Y-100277395D01*
X154991097Y-99464298D01*
X154919514Y-99220329D01*
X154664004Y-99099429D01*
X154389816Y-99030700D01*
X154107488Y-99016783D01*
X153827870Y-99058213D01*
X153561708Y-99153397D01*
X153436486Y-99220329D01*
X153364903Y-99464298D01*
X111708000Y-99464298D01*
X111708000Y-97893702D01*
X153364903Y-97893702D01*
X153436486Y-98137671D01*
X153691996Y-98258571D01*
X153966184Y-98327300D01*
X154248512Y-98341217D01*
X154528130Y-98299787D01*
X154794292Y-98204603D01*
X154919514Y-98137671D01*
X154991097Y-97893702D01*
X154178000Y-97080605D01*
X153364903Y-97893702D01*
X111708000Y-97893702D01*
X111708000Y-96971512D01*
X152737783Y-96971512D01*
X152779213Y-97251130D01*
X152874397Y-97517292D01*
X152941329Y-97642514D01*
X153185298Y-97714097D01*
X153998395Y-96901000D01*
X154357605Y-96901000D01*
X155170702Y-97714097D01*
X155414671Y-97642514D01*
X155535571Y-97387004D01*
X155604300Y-97112816D01*
X155618217Y-96830488D01*
X155607724Y-96759665D01*
X157743000Y-96759665D01*
X157743000Y-97042335D01*
X157798147Y-97319574D01*
X157906320Y-97580727D01*
X158063363Y-97815759D01*
X158263241Y-98015637D01*
X158498273Y-98172680D01*
X158759426Y-98280853D01*
X159036665Y-98336000D01*
X159319335Y-98336000D01*
X159596574Y-98280853D01*
X159857727Y-98172680D01*
X160092759Y-98015637D01*
X160292637Y-97815759D01*
X160321071Y-97773203D01*
X164402000Y-97773203D01*
X164402000Y-98060797D01*
X164458107Y-98342866D01*
X164568165Y-98608569D01*
X164727944Y-98847696D01*
X164931304Y-99051056D01*
X165134759Y-99187000D01*
X164931304Y-99322944D01*
X164727944Y-99526304D01*
X164568165Y-99765431D01*
X164458107Y-100031134D01*
X164402000Y-100313203D01*
X164402000Y-100600797D01*
X164458107Y-100882866D01*
X164568165Y-101148569D01*
X164727944Y-101387696D01*
X164931304Y-101591056D01*
X165134759Y-101727000D01*
X164931304Y-101862944D01*
X164727944Y-102066304D01*
X164568165Y-102305431D01*
X164458107Y-102571134D01*
X164402000Y-102853203D01*
X164402000Y-103140797D01*
X164458107Y-103422866D01*
X164568165Y-103688569D01*
X164727944Y-103927696D01*
X164931304Y-104131056D01*
X165134759Y-104267000D01*
X164931304Y-104402944D01*
X164727944Y-104606304D01*
X164568165Y-104845431D01*
X164458107Y-105111134D01*
X164402000Y-105393203D01*
X164402000Y-105680797D01*
X164458107Y-105962866D01*
X164568165Y-106228569D01*
X164727944Y-106467696D01*
X164931304Y-106671056D01*
X165132576Y-106805541D01*
X165105663Y-106819927D01*
X165031054Y-107066449D01*
X165862000Y-107897395D01*
X166692946Y-107066449D01*
X166618337Y-106819927D01*
X166590023Y-106806477D01*
X166792696Y-106671056D01*
X166996056Y-106467696D01*
X167155835Y-106228569D01*
X167265893Y-105962866D01*
X167322000Y-105680797D01*
X167322000Y-105393203D01*
X167265893Y-105111134D01*
X167155835Y-104845431D01*
X166996056Y-104606304D01*
X166792696Y-104402944D01*
X166589241Y-104267000D01*
X166792696Y-104131056D01*
X166996056Y-103927696D01*
X167155835Y-103688569D01*
X167265893Y-103422866D01*
X167322000Y-103140797D01*
X167322000Y-102853203D01*
X167265893Y-102571134D01*
X167155835Y-102305431D01*
X166996056Y-102066304D01*
X166792696Y-101862944D01*
X166589241Y-101727000D01*
X166792696Y-101591056D01*
X166996056Y-101387696D01*
X167155835Y-101148569D01*
X167265893Y-100882866D01*
X167322000Y-100600797D01*
X167322000Y-100313203D01*
X167265893Y-100031134D01*
X167155835Y-99765431D01*
X166996056Y-99526304D01*
X166792696Y-99322944D01*
X166589241Y-99187000D01*
X166792696Y-99051056D01*
X166996056Y-98847696D01*
X167155835Y-98608569D01*
X167265893Y-98342866D01*
X167322000Y-98060797D01*
X167322000Y-97773203D01*
X167265893Y-97491134D01*
X167155835Y-97225431D01*
X166996056Y-96986304D01*
X166792696Y-96782944D01*
X166553569Y-96623165D01*
X166287866Y-96513107D01*
X166005797Y-96457000D01*
X165718203Y-96457000D01*
X165436134Y-96513107D01*
X165170431Y-96623165D01*
X164931304Y-96782944D01*
X164727944Y-96986304D01*
X164568165Y-97225431D01*
X164458107Y-97491134D01*
X164402000Y-97773203D01*
X160321071Y-97773203D01*
X160449680Y-97580727D01*
X160557853Y-97319574D01*
X160613000Y-97042335D01*
X160613000Y-96759665D01*
X160557853Y-96482426D01*
X160449680Y-96221273D01*
X160292637Y-95986241D01*
X160092759Y-95786363D01*
X159857727Y-95629320D01*
X159596574Y-95521147D01*
X159319335Y-95466000D01*
X159036665Y-95466000D01*
X158759426Y-95521147D01*
X158498273Y-95629320D01*
X158263241Y-95786363D01*
X158063363Y-95986241D01*
X157906320Y-96221273D01*
X157798147Y-96482426D01*
X157743000Y-96759665D01*
X155607724Y-96759665D01*
X155576787Y-96550870D01*
X155481603Y-96284708D01*
X155414671Y-96159486D01*
X155170702Y-96087903D01*
X154357605Y-96901000D01*
X153998395Y-96901000D01*
X153185298Y-96087903D01*
X152941329Y-96159486D01*
X152820429Y-96414996D01*
X152751700Y-96689184D01*
X152737783Y-96971512D01*
X111708000Y-96971512D01*
X111708000Y-95908298D01*
X153364903Y-95908298D01*
X154178000Y-96721395D01*
X154991097Y-95908298D01*
X154919514Y-95664329D01*
X154664004Y-95543429D01*
X154389816Y-95474700D01*
X154107488Y-95460783D01*
X153827870Y-95502213D01*
X153561708Y-95597397D01*
X153436486Y-95664329D01*
X153364903Y-95908298D01*
X111708000Y-95908298D01*
X111708000Y-88766852D01*
X149479500Y-88766852D01*
X149479500Y-89015148D01*
X149527940Y-89258674D01*
X149622959Y-89488071D01*
X149760906Y-89694522D01*
X149855384Y-89789000D01*
X149760906Y-89883478D01*
X149622959Y-90089929D01*
X149527940Y-90319326D01*
X149479500Y-90562852D01*
X149479500Y-90811148D01*
X149527940Y-91054674D01*
X149622959Y-91284071D01*
X149760906Y-91490522D01*
X149936478Y-91666094D01*
X150142929Y-91804041D01*
X150372326Y-91899060D01*
X150615852Y-91947500D01*
X150864148Y-91947500D01*
X151107674Y-91899060D01*
X151337071Y-91804041D01*
X151543522Y-91666094D01*
X151719094Y-91490522D01*
X151857041Y-91284071D01*
X151952060Y-91054674D01*
X152000500Y-90811148D01*
X152000500Y-90562852D01*
X151952060Y-90319326D01*
X151857041Y-90089929D01*
X151719094Y-89883478D01*
X151624616Y-89789000D01*
X151654610Y-89759006D01*
X151847599Y-89759006D01*
X151898009Y-89985185D01*
X152123733Y-90088626D01*
X152365300Y-90146044D01*
X152613427Y-90155231D01*
X152858578Y-90115833D01*
X153091333Y-90029366D01*
X153173991Y-89985185D01*
X153224401Y-89759006D01*
X152536000Y-89070605D01*
X151847599Y-89759006D01*
X151654610Y-89759006D01*
X151719094Y-89694522D01*
X151857041Y-89488071D01*
X151926137Y-89321258D01*
X152356395Y-88891000D01*
X152715605Y-88891000D01*
X153404006Y-89579401D01*
X153630185Y-89528991D01*
X153733626Y-89303267D01*
X153791044Y-89061700D01*
X153800231Y-88813573D01*
X153792723Y-88766852D01*
X158115500Y-88766852D01*
X158115500Y-89015148D01*
X158163940Y-89258674D01*
X158258959Y-89488071D01*
X158396906Y-89694522D01*
X158491384Y-89789000D01*
X158396906Y-89883478D01*
X158258959Y-90089929D01*
X158163940Y-90319326D01*
X158115500Y-90562852D01*
X158115500Y-90811148D01*
X158163940Y-91054674D01*
X158258959Y-91284071D01*
X158396906Y-91490522D01*
X158572478Y-91666094D01*
X158778929Y-91804041D01*
X159008326Y-91899060D01*
X159251852Y-91947500D01*
X159500148Y-91947500D01*
X159743674Y-91899060D01*
X159973071Y-91804041D01*
X160179522Y-91666094D01*
X160355094Y-91490522D01*
X160493041Y-91284071D01*
X160588060Y-91054674D01*
X160636500Y-90811148D01*
X160636500Y-90562852D01*
X160588060Y-90319326D01*
X160493041Y-90089929D01*
X160355094Y-89883478D01*
X160260616Y-89789000D01*
X160290610Y-89759006D01*
X160483599Y-89759006D01*
X160534009Y-89985185D01*
X160759733Y-90088626D01*
X161001300Y-90146044D01*
X161249427Y-90155231D01*
X161494578Y-90115833D01*
X161727333Y-90029366D01*
X161809991Y-89985185D01*
X161860401Y-89759006D01*
X161172000Y-89070605D01*
X160483599Y-89759006D01*
X160290610Y-89759006D01*
X160355094Y-89694522D01*
X160493041Y-89488071D01*
X160562137Y-89321258D01*
X160992395Y-88891000D01*
X161351605Y-88891000D01*
X162040006Y-89579401D01*
X162266185Y-89528991D01*
X162369626Y-89303267D01*
X162427044Y-89061700D01*
X162436231Y-88813573D01*
X162396833Y-88568422D01*
X162310366Y-88335667D01*
X162266185Y-88253009D01*
X162040006Y-88202599D01*
X161351605Y-88891000D01*
X160992395Y-88891000D01*
X160562137Y-88460742D01*
X160493041Y-88293929D01*
X160355094Y-88087478D01*
X160290610Y-88022994D01*
X160483599Y-88022994D01*
X161172000Y-88711395D01*
X161860401Y-88022994D01*
X161809991Y-87796815D01*
X161584267Y-87693374D01*
X161342700Y-87635956D01*
X161094573Y-87626769D01*
X160849422Y-87666167D01*
X160616667Y-87752634D01*
X160534009Y-87796815D01*
X160483599Y-88022994D01*
X160290610Y-88022994D01*
X160179522Y-87911906D01*
X159973071Y-87773959D01*
X159743674Y-87678940D01*
X159500148Y-87630500D01*
X159251852Y-87630500D01*
X159008326Y-87678940D01*
X158778929Y-87773959D01*
X158572478Y-87911906D01*
X158396906Y-88087478D01*
X158258959Y-88293929D01*
X158163940Y-88523326D01*
X158115500Y-88766852D01*
X153792723Y-88766852D01*
X153760833Y-88568422D01*
X153674366Y-88335667D01*
X153630185Y-88253009D01*
X153404006Y-88202599D01*
X152715605Y-88891000D01*
X152356395Y-88891000D01*
X151926137Y-88460742D01*
X151857041Y-88293929D01*
X151719094Y-88087478D01*
X151654610Y-88022994D01*
X151847599Y-88022994D01*
X152536000Y-88711395D01*
X153224401Y-88022994D01*
X153173991Y-87796815D01*
X152948267Y-87693374D01*
X152706700Y-87635956D01*
X152458573Y-87626769D01*
X152213422Y-87666167D01*
X151980667Y-87752634D01*
X151898009Y-87796815D01*
X151847599Y-88022994D01*
X151654610Y-88022994D01*
X151543522Y-87911906D01*
X151337071Y-87773959D01*
X151107674Y-87678940D01*
X150864148Y-87630500D01*
X150615852Y-87630500D01*
X150372326Y-87678940D01*
X150142929Y-87773959D01*
X149936478Y-87911906D01*
X149760906Y-88087478D01*
X149622959Y-88293929D01*
X149527940Y-88523326D01*
X149479500Y-88766852D01*
X111708000Y-88766852D01*
X111708000Y-84069514D01*
X155383000Y-84069514D01*
X155383000Y-84332486D01*
X155434304Y-84590405D01*
X155534939Y-84833359D01*
X155681038Y-85052013D01*
X155866987Y-85237962D01*
X156085641Y-85384061D01*
X156328595Y-85484696D01*
X156586514Y-85536000D01*
X156849486Y-85536000D01*
X157107405Y-85484696D01*
X157350359Y-85384061D01*
X157569013Y-85237962D01*
X157754962Y-85052013D01*
X157901061Y-84833359D01*
X157988000Y-84623470D01*
X158074939Y-84833359D01*
X158221038Y-85052013D01*
X158406987Y-85237962D01*
X158625641Y-85384061D01*
X158868595Y-85484696D01*
X159126514Y-85536000D01*
X159389486Y-85536000D01*
X159647405Y-85484696D01*
X159890359Y-85384061D01*
X160109013Y-85237962D01*
X160294962Y-85052013D01*
X160441061Y-84833359D01*
X160541696Y-84590405D01*
X160593000Y-84332486D01*
X160593000Y-84069514D01*
X160541696Y-83811595D01*
X160441061Y-83568641D01*
X160294962Y-83349987D01*
X160109013Y-83164038D01*
X159890359Y-83017939D01*
X159647405Y-82917304D01*
X159389486Y-82866000D01*
X159126514Y-82866000D01*
X158868595Y-82917304D01*
X158625641Y-83017939D01*
X158406987Y-83164038D01*
X158221038Y-83349987D01*
X158074939Y-83568641D01*
X157988000Y-83778530D01*
X157901061Y-83568641D01*
X157754962Y-83349987D01*
X157569013Y-83164038D01*
X157350359Y-83017939D01*
X157107405Y-82917304D01*
X156849486Y-82866000D01*
X156586514Y-82866000D01*
X156328595Y-82917304D01*
X156085641Y-83017939D01*
X155866987Y-83164038D01*
X155681038Y-83349987D01*
X155534939Y-83568641D01*
X155434304Y-83811595D01*
X155383000Y-84069514D01*
X111708000Y-84069514D01*
X111708000Y-81021514D01*
X146239000Y-81021514D01*
X146239000Y-81284486D01*
X146290304Y-81542405D01*
X146390939Y-81785359D01*
X146537038Y-82004013D01*
X146722987Y-82189962D01*
X146941641Y-82336061D01*
X147184595Y-82436696D01*
X147442514Y-82488000D01*
X147705486Y-82488000D01*
X147963405Y-82436696D01*
X148206359Y-82336061D01*
X148425013Y-82189962D01*
X148610962Y-82004013D01*
X148757061Y-81785359D01*
X148857696Y-81542405D01*
X148909000Y-81284486D01*
X148909000Y-81021514D01*
X151319000Y-81021514D01*
X151319000Y-81284486D01*
X151370304Y-81542405D01*
X151470939Y-81785359D01*
X151617038Y-82004013D01*
X151802987Y-82189962D01*
X152021641Y-82336061D01*
X152264595Y-82436696D01*
X152522514Y-82488000D01*
X152785486Y-82488000D01*
X153043405Y-82436696D01*
X153286359Y-82336061D01*
X153505013Y-82189962D01*
X153690962Y-82004013D01*
X153837061Y-81785359D01*
X153937696Y-81542405D01*
X153989000Y-81284486D01*
X153989000Y-81021514D01*
X153937696Y-80763595D01*
X153837061Y-80520641D01*
X153690962Y-80301987D01*
X153505013Y-80116038D01*
X153286359Y-79969939D01*
X153043405Y-79869304D01*
X152785486Y-79818000D01*
X152522514Y-79818000D01*
X152264595Y-79869304D01*
X152021641Y-79969939D01*
X151802987Y-80116038D01*
X151617038Y-80301987D01*
X151470939Y-80520641D01*
X151370304Y-80763595D01*
X151319000Y-81021514D01*
X148909000Y-81021514D01*
X148857696Y-80763595D01*
X148757061Y-80520641D01*
X148610962Y-80301987D01*
X148425013Y-80116038D01*
X148206359Y-79969939D01*
X147963405Y-79869304D01*
X147705486Y-79818000D01*
X147442514Y-79818000D01*
X147184595Y-79869304D01*
X146941641Y-79969939D01*
X146722987Y-80116038D01*
X146537038Y-80301987D01*
X146390939Y-80520641D01*
X146290304Y-80763595D01*
X146239000Y-81021514D01*
X111708000Y-81021514D01*
X111708000Y-78989514D01*
X155383000Y-78989514D01*
X155383000Y-79252486D01*
X155434304Y-79510405D01*
X155534939Y-79753359D01*
X155681038Y-79972013D01*
X155866987Y-80157962D01*
X156085641Y-80304061D01*
X156328595Y-80404696D01*
X156586514Y-80456000D01*
X156849486Y-80456000D01*
X157107405Y-80404696D01*
X157350359Y-80304061D01*
X157569013Y-80157962D01*
X157754962Y-79972013D01*
X157901061Y-79753359D01*
X157988000Y-79543470D01*
X158074939Y-79753359D01*
X158221038Y-79972013D01*
X158406987Y-80157962D01*
X158625641Y-80304061D01*
X158868595Y-80404696D01*
X159126514Y-80456000D01*
X159389486Y-80456000D01*
X159647405Y-80404696D01*
X159890359Y-80304061D01*
X160109013Y-80157962D01*
X160294962Y-79972013D01*
X160441061Y-79753359D01*
X160541696Y-79510405D01*
X160593000Y-79252486D01*
X160593000Y-78989514D01*
X160541696Y-78731595D01*
X160441061Y-78488641D01*
X160294962Y-78269987D01*
X160109013Y-78084038D01*
X159890359Y-77937939D01*
X159647405Y-77837304D01*
X159389486Y-77786000D01*
X159126514Y-77786000D01*
X158868595Y-77837304D01*
X158625641Y-77937939D01*
X158406987Y-78084038D01*
X158221038Y-78269987D01*
X158074939Y-78488641D01*
X157988000Y-78698530D01*
X157901061Y-78488641D01*
X157754962Y-78269987D01*
X157569013Y-78084038D01*
X157350359Y-77937939D01*
X157107405Y-77837304D01*
X156849486Y-77786000D01*
X156586514Y-77786000D01*
X156328595Y-77837304D01*
X156085641Y-77937939D01*
X155866987Y-78084038D01*
X155681038Y-78269987D01*
X155534939Y-78488641D01*
X155434304Y-78731595D01*
X155383000Y-78989514D01*
X111708000Y-78989514D01*
X111708000Y-73735000D01*
X124296293Y-73735000D01*
X124166406Y-73864887D01*
%TA.AperFunction,Conductor*%
D21*
G36*
X124166406Y-73864887D02*
G01*
X123874536Y-74301702D01*
X123673492Y-74787065D01*
X123571000Y-75302323D01*
X123571000Y-75827677D01*
X123673492Y-76342935D01*
X123874536Y-76828298D01*
X124166406Y-77265113D01*
X124537887Y-77636594D01*
X124974702Y-77928464D01*
X125460065Y-78129508D01*
X125975323Y-78232000D01*
X126500677Y-78232000D01*
X127015935Y-78129508D01*
X127501298Y-77928464D01*
X127938113Y-77636594D01*
X128309594Y-77265113D01*
X128601464Y-76828298D01*
X128657001Y-76694219D01*
X128729203Y-76782197D01*
X128957395Y-76969469D01*
X129217737Y-77108625D01*
X129500224Y-77194316D01*
X129794000Y-77223251D01*
X130087777Y-77194316D01*
X130370264Y-77108625D01*
X130630606Y-76969469D01*
X130858797Y-76782197D01*
X131046069Y-76554006D01*
X131064000Y-76520459D01*
X131081931Y-76554006D01*
X131269203Y-76782197D01*
X131497395Y-76969469D01*
X131757737Y-77108625D01*
X132040224Y-77194316D01*
X132334000Y-77223251D01*
X132627777Y-77194316D01*
X132910264Y-77108625D01*
X133170606Y-76969469D01*
X133398797Y-76782197D01*
X133586069Y-76554006D01*
X133604000Y-76520459D01*
X133621931Y-76554006D01*
X133809203Y-76782197D01*
X134037395Y-76969469D01*
X134297737Y-77108625D01*
X134580224Y-77194316D01*
X134874000Y-77223251D01*
X135167777Y-77194316D01*
X135450264Y-77108625D01*
X135710606Y-76969469D01*
X135938797Y-76782197D01*
X136126069Y-76554006D01*
X136147424Y-76514053D01*
X136295514Y-76716729D01*
X136511965Y-76915733D01*
X136763081Y-77068686D01*
X137039211Y-77169709D01*
X137054974Y-77172358D01*
X137287000Y-77051217D01*
X137287000Y-75692000D01*
X137267000Y-75692000D01*
X137267000Y-75438000D01*
X137287000Y-75438000D01*
X137287000Y-74078783D01*
X137541000Y-74078783D01*
X137541000Y-75438000D01*
X137561000Y-75438000D01*
X137561000Y-75692000D01*
X137541000Y-75692000D01*
X137541000Y-77051217D01*
X137773026Y-77172358D01*
X137788789Y-77169709D01*
X138064919Y-77068686D01*
X138316035Y-76915733D01*
X138532486Y-76716729D01*
X138680576Y-76514053D01*
X138701931Y-76554006D01*
X138889203Y-76782197D01*
X139117395Y-76969469D01*
X139377737Y-77108625D01*
X139660224Y-77194316D01*
X139954000Y-77223251D01*
X140247777Y-77194316D01*
X140530264Y-77108625D01*
X140790606Y-76969469D01*
X141018797Y-76782197D01*
X141206069Y-76554006D01*
X141224000Y-76520459D01*
X141241931Y-76554006D01*
X141429203Y-76782197D01*
X141657395Y-76969469D01*
X141917737Y-77108625D01*
X142200224Y-77194316D01*
X142494000Y-77223251D01*
X142787777Y-77194316D01*
X143070264Y-77108625D01*
X143330606Y-76969469D01*
X143558797Y-76782197D01*
X143746069Y-76554006D01*
X143764000Y-76520459D01*
X143781931Y-76554006D01*
X143969203Y-76782197D01*
X144197395Y-76969469D01*
X144457737Y-77108625D01*
X144740224Y-77194316D01*
X145034000Y-77223251D01*
X145327777Y-77194316D01*
X145610264Y-77108625D01*
X145870606Y-76969469D01*
X146098797Y-76782197D01*
X146286069Y-76554006D01*
X146304000Y-76520459D01*
X146321931Y-76554006D01*
X146509203Y-76782197D01*
X146737395Y-76969469D01*
X146997737Y-77108625D01*
X147280224Y-77194316D01*
X147574000Y-77223251D01*
X147867777Y-77194316D01*
X148150264Y-77108625D01*
X148410606Y-76969469D01*
X148638797Y-76782197D01*
X148826069Y-76554006D01*
X148844000Y-76520459D01*
X148861931Y-76554006D01*
X149049203Y-76782197D01*
X149277395Y-76969469D01*
X149537737Y-77108625D01*
X149820224Y-77194316D01*
X150114000Y-77223251D01*
X150407777Y-77194316D01*
X150690264Y-77108625D01*
X150950606Y-76969469D01*
X151178797Y-76782197D01*
X151366069Y-76554006D01*
X151384000Y-76520459D01*
X151401931Y-76554006D01*
X151589203Y-76782197D01*
X151817395Y-76969469D01*
X152077737Y-77108625D01*
X152360224Y-77194316D01*
X152654000Y-77223251D01*
X152947777Y-77194316D01*
X153230264Y-77108625D01*
X153490606Y-76969469D01*
X153718797Y-76782197D01*
X153906069Y-76554006D01*
X154045225Y-76293663D01*
X154130916Y-76011176D01*
X154152600Y-75791018D01*
X154152600Y-75338982D01*
X155219400Y-75338982D01*
X155219400Y-75791019D01*
X155241084Y-76011177D01*
X155326775Y-76293664D01*
X155465931Y-76554006D01*
X155653203Y-76782197D01*
X155881395Y-76969469D01*
X156141737Y-77108625D01*
X156424224Y-77194316D01*
X156718000Y-77223251D01*
X157011777Y-77194316D01*
X157294264Y-77108625D01*
X157554606Y-76969469D01*
X157782797Y-76782197D01*
X157970069Y-76554006D01*
X157988000Y-76520459D01*
X158005931Y-76554006D01*
X158193203Y-76782197D01*
X158421395Y-76969469D01*
X158681737Y-77108625D01*
X158964224Y-77194316D01*
X159258000Y-77223251D01*
X159551777Y-77194316D01*
X159834264Y-77108625D01*
X160094606Y-76969469D01*
X160322797Y-76782197D01*
X160510069Y-76554006D01*
X160528000Y-76520459D01*
X160545931Y-76554006D01*
X160733203Y-76782197D01*
X160961395Y-76969469D01*
X161221737Y-77108625D01*
X161504224Y-77194316D01*
X161798000Y-77223251D01*
X162091777Y-77194316D01*
X162374264Y-77108625D01*
X162634606Y-76969469D01*
X162862797Y-76782197D01*
X163050069Y-76554006D01*
X163068000Y-76520459D01*
X163085931Y-76554006D01*
X163273203Y-76782197D01*
X163501395Y-76969469D01*
X163761737Y-77108625D01*
X164044224Y-77194316D01*
X164338000Y-77223251D01*
X164631777Y-77194316D01*
X164914264Y-77108625D01*
X165174606Y-76969469D01*
X165402797Y-76782197D01*
X165590069Y-76554006D01*
X165608000Y-76520459D01*
X165625931Y-76554006D01*
X165813203Y-76782197D01*
X166041395Y-76969469D01*
X166301737Y-77108625D01*
X166584224Y-77194316D01*
X166878000Y-77223251D01*
X167171777Y-77194316D01*
X167454264Y-77108625D01*
X167714606Y-76969469D01*
X167942797Y-76782197D01*
X168130069Y-76554006D01*
X168148000Y-76520459D01*
X168165931Y-76554006D01*
X168353203Y-76782197D01*
X168581395Y-76969469D01*
X168841737Y-77108625D01*
X169124224Y-77194316D01*
X169418000Y-77223251D01*
X169711777Y-77194316D01*
X169994264Y-77108625D01*
X170254606Y-76969469D01*
X170482797Y-76782197D01*
X170670069Y-76554006D01*
X170688000Y-76520459D01*
X170705931Y-76554006D01*
X170893203Y-76782197D01*
X171121395Y-76969469D01*
X171381737Y-77108625D01*
X171664224Y-77194316D01*
X171958000Y-77223251D01*
X172251777Y-77194316D01*
X172534264Y-77108625D01*
X172794606Y-76969469D01*
X173022797Y-76782197D01*
X173210069Y-76554006D01*
X173228000Y-76520459D01*
X173245931Y-76554006D01*
X173433203Y-76782197D01*
X173661395Y-76969469D01*
X173921737Y-77108625D01*
X174204224Y-77194316D01*
X174498000Y-77223251D01*
X174791777Y-77194316D01*
X175074264Y-77108625D01*
X175334606Y-76969469D01*
X175562797Y-76782197D01*
X175750069Y-76554006D01*
X175889225Y-76293663D01*
X175974916Y-76011176D01*
X175996600Y-75791018D01*
X175996600Y-75338981D01*
X175974916Y-75118823D01*
X175889225Y-74836336D01*
X175750069Y-74575994D01*
X175562797Y-74347803D01*
X175334605Y-74160531D01*
X175074263Y-74021375D01*
X174791776Y-73935684D01*
X174498000Y-73906749D01*
X174204223Y-73935684D01*
X173921736Y-74021375D01*
X173661394Y-74160531D01*
X173433203Y-74347803D01*
X173245931Y-74575995D01*
X173228000Y-74609541D01*
X173210069Y-74575994D01*
X173022797Y-74347803D01*
X172794605Y-74160531D01*
X172534263Y-74021375D01*
X172251776Y-73935684D01*
X171958000Y-73906749D01*
X171664223Y-73935684D01*
X171381736Y-74021375D01*
X171121394Y-74160531D01*
X170893203Y-74347803D01*
X170705931Y-74575995D01*
X170688000Y-74609541D01*
X170670069Y-74575994D01*
X170482797Y-74347803D01*
X170254605Y-74160531D01*
X169994263Y-74021375D01*
X169711776Y-73935684D01*
X169418000Y-73906749D01*
X169124223Y-73935684D01*
X168841736Y-74021375D01*
X168581394Y-74160531D01*
X168353203Y-74347803D01*
X168165931Y-74575995D01*
X168148000Y-74609541D01*
X168130069Y-74575994D01*
X167942797Y-74347803D01*
X167714605Y-74160531D01*
X167454263Y-74021375D01*
X167171776Y-73935684D01*
X166878000Y-73906749D01*
X166584223Y-73935684D01*
X166301736Y-74021375D01*
X166041394Y-74160531D01*
X165813203Y-74347803D01*
X165625931Y-74575995D01*
X165608000Y-74609541D01*
X165590069Y-74575994D01*
X165402797Y-74347803D01*
X165174605Y-74160531D01*
X164914263Y-74021375D01*
X164631776Y-73935684D01*
X164338000Y-73906749D01*
X164044223Y-73935684D01*
X163761736Y-74021375D01*
X163501394Y-74160531D01*
X163273203Y-74347803D01*
X163085931Y-74575995D01*
X163068000Y-74609541D01*
X163050069Y-74575994D01*
X162862797Y-74347803D01*
X162634605Y-74160531D01*
X162374263Y-74021375D01*
X162091776Y-73935684D01*
X161798000Y-73906749D01*
X161504223Y-73935684D01*
X161221736Y-74021375D01*
X160961394Y-74160531D01*
X160733203Y-74347803D01*
X160545931Y-74575995D01*
X160528000Y-74609541D01*
X160510069Y-74575994D01*
X160322797Y-74347803D01*
X160094605Y-74160531D01*
X159834263Y-74021375D01*
X159551776Y-73935684D01*
X159258000Y-73906749D01*
X158964223Y-73935684D01*
X158681736Y-74021375D01*
X158421394Y-74160531D01*
X158193203Y-74347803D01*
X158005931Y-74575995D01*
X157988000Y-74609541D01*
X157970069Y-74575994D01*
X157782797Y-74347803D01*
X157554605Y-74160531D01*
X157294263Y-74021375D01*
X157011776Y-73935684D01*
X156718000Y-73906749D01*
X156424223Y-73935684D01*
X156141736Y-74021375D01*
X155881394Y-74160531D01*
X155653203Y-74347803D01*
X155465931Y-74575995D01*
X155326775Y-74836337D01*
X155241084Y-75118824D01*
X155219400Y-75338982D01*
X154152600Y-75338982D01*
X154152600Y-75338981D01*
X154130916Y-75118823D01*
X154045225Y-74836336D01*
X153906069Y-74575994D01*
X153718797Y-74347803D01*
X153490605Y-74160531D01*
X153230263Y-74021375D01*
X152947776Y-73935684D01*
X152654000Y-73906749D01*
X152360223Y-73935684D01*
X152077736Y-74021375D01*
X151817394Y-74160531D01*
X151589203Y-74347803D01*
X151401931Y-74575995D01*
X151384000Y-74609541D01*
X151366069Y-74575994D01*
X151178797Y-74347803D01*
X150950605Y-74160531D01*
X150690263Y-74021375D01*
X150407776Y-73935684D01*
X150114000Y-73906749D01*
X149820223Y-73935684D01*
X149537736Y-74021375D01*
X149277394Y-74160531D01*
X149049203Y-74347803D01*
X148861931Y-74575995D01*
X148844000Y-74609541D01*
X148826069Y-74575994D01*
X148638797Y-74347803D01*
X148410605Y-74160531D01*
X148150263Y-74021375D01*
X147867776Y-73935684D01*
X147574000Y-73906749D01*
X147280223Y-73935684D01*
X146997736Y-74021375D01*
X146737394Y-74160531D01*
X146509203Y-74347803D01*
X146321931Y-74575995D01*
X146304000Y-74609541D01*
X146286069Y-74575994D01*
X146098797Y-74347803D01*
X145870605Y-74160531D01*
X145610263Y-74021375D01*
X145327776Y-73935684D01*
X145034000Y-73906749D01*
X144740223Y-73935684D01*
X144457736Y-74021375D01*
X144197394Y-74160531D01*
X143969203Y-74347803D01*
X143781931Y-74575995D01*
X143764000Y-74609541D01*
X143746069Y-74575994D01*
X143558797Y-74347803D01*
X143330605Y-74160531D01*
X143070263Y-74021375D01*
X142787776Y-73935684D01*
X142494000Y-73906749D01*
X142200223Y-73935684D01*
X141917736Y-74021375D01*
X141657394Y-74160531D01*
X141429203Y-74347803D01*
X141241931Y-74575995D01*
X141224000Y-74609541D01*
X141206069Y-74575994D01*
X141018797Y-74347803D01*
X140790605Y-74160531D01*
X140530263Y-74021375D01*
X140247776Y-73935684D01*
X139954000Y-73906749D01*
X139660223Y-73935684D01*
X139377736Y-74021375D01*
X139117394Y-74160531D01*
X138889203Y-74347803D01*
X138701931Y-74575995D01*
X138680576Y-74615947D01*
X138532486Y-74413271D01*
X138316035Y-74214267D01*
X138064919Y-74061314D01*
X137788789Y-73960291D01*
X137773026Y-73957642D01*
X137541000Y-74078783D01*
X137287000Y-74078783D01*
X137054974Y-73957642D01*
X137039211Y-73960291D01*
X136763081Y-74061314D01*
X136511965Y-74214267D01*
X136295514Y-74413271D01*
X136147424Y-74615947D01*
X136126069Y-74575994D01*
X135938797Y-74347803D01*
X135710605Y-74160531D01*
X135450263Y-74021375D01*
X135167776Y-73935684D01*
X134874000Y-73906749D01*
X134580223Y-73935684D01*
X134297736Y-74021375D01*
X134037394Y-74160531D01*
X133809203Y-74347803D01*
X133621931Y-74575995D01*
X133604000Y-74609541D01*
X133586069Y-74575994D01*
X133398797Y-74347803D01*
X133170605Y-74160531D01*
X132910263Y-74021375D01*
X132627776Y-73935684D01*
X132334000Y-73906749D01*
X132040223Y-73935684D01*
X131757736Y-74021375D01*
X131497394Y-74160531D01*
X131269203Y-74347803D01*
X131081931Y-74575995D01*
X131064000Y-74609541D01*
X131046069Y-74575994D01*
X130858797Y-74347803D01*
X130630605Y-74160531D01*
X130370263Y-74021375D01*
X130087776Y-73935684D01*
X129794000Y-73906749D01*
X129500223Y-73935684D01*
X129217736Y-74021375D01*
X128957394Y-74160531D01*
X128729203Y-74347803D01*
X128657001Y-74435781D01*
X128601464Y-74301702D01*
X128309594Y-73864887D01*
X128179707Y-73735000D01*
X175219909Y-73735000D01*
X176328001Y-74843093D01*
X176328000Y-85944125D01*
X176324565Y-85979000D01*
X176328000Y-86013875D01*
X176328000Y-86013876D01*
X176338273Y-86118183D01*
X176378872Y-86252019D01*
X176444800Y-86375362D01*
X176533525Y-86483474D01*
X176560617Y-86505708D01*
X178868001Y-88813093D01*
X178868001Y-88863294D01*
X178738113Y-88733406D01*
X178301298Y-88441536D01*
X177815935Y-88240492D01*
X177300677Y-88138000D01*
X176775323Y-88138000D01*
X176260065Y-88240492D01*
X175774702Y-88441536D01*
X175337887Y-88733406D01*
X174966406Y-89104887D01*
X174674536Y-89541702D01*
X174473492Y-90027065D01*
X174371000Y-90542323D01*
X174371000Y-91067677D01*
X174473492Y-91582935D01*
X174674536Y-92068298D01*
X174966406Y-92505113D01*
X175337887Y-92876594D01*
X175774702Y-93168464D01*
X176260065Y-93369508D01*
X176775323Y-93472000D01*
X177300677Y-93472000D01*
X177815935Y-93369508D01*
X178301298Y-93168464D01*
X178738113Y-92876594D01*
X178868001Y-92746706D01*
X178868001Y-98515294D01*
X178738113Y-98385406D01*
X178301298Y-98093536D01*
X177815935Y-97892492D01*
X177300677Y-97790000D01*
X176775323Y-97790000D01*
X176260065Y-97892492D01*
X175774702Y-98093536D01*
X175337887Y-98385406D01*
X174966406Y-98756887D01*
X174674536Y-99193702D01*
X174473492Y-99679065D01*
X174371000Y-100194323D01*
X174371000Y-100719677D01*
X174473492Y-101234935D01*
X174674536Y-101720298D01*
X174966406Y-102157113D01*
X175337887Y-102528594D01*
X175774702Y-102820464D01*
X176260065Y-103021508D01*
X176775323Y-103124000D01*
X177300677Y-103124000D01*
X177815935Y-103021508D01*
X178301298Y-102820464D01*
X178738113Y-102528594D01*
X178868001Y-102398706D01*
X178868000Y-106135293D01*
X178738113Y-106005406D01*
X178301298Y-105713536D01*
X177815935Y-105512492D01*
X177300677Y-105410000D01*
X176775323Y-105410000D01*
X176260065Y-105512492D01*
X175774702Y-105713536D01*
X175337887Y-106005406D01*
X174966406Y-106376887D01*
X174674536Y-106813702D01*
X174473492Y-107299065D01*
X174371000Y-107814323D01*
X174371000Y-108339677D01*
X174473492Y-108854935D01*
X174674536Y-109340298D01*
X174966406Y-109777113D01*
X175337887Y-110148594D01*
X175774702Y-110440464D01*
X176260065Y-110641508D01*
X176775323Y-110744000D01*
X177300677Y-110744000D01*
X177815935Y-110641508D01*
X178301298Y-110440464D01*
X178738113Y-110148594D01*
X178868000Y-110018707D01*
X178868000Y-116803293D01*
X178738113Y-116673406D01*
X178301298Y-116381536D01*
X177815935Y-116180492D01*
X177300677Y-116078000D01*
X176775323Y-116078000D01*
X176260065Y-116180492D01*
X175774702Y-116381536D01*
X175337887Y-116673406D01*
X174966406Y-117044887D01*
X174674536Y-117481702D01*
X174473492Y-117967065D01*
X174371000Y-118482323D01*
X174371000Y-119007677D01*
X174473492Y-119522935D01*
X174674536Y-120008298D01*
X174966406Y-120445113D01*
X175337887Y-120816594D01*
X175774702Y-121108464D01*
X176260065Y-121309508D01*
X176775323Y-121412000D01*
X177300677Y-121412000D01*
X177815935Y-121309508D01*
X178301298Y-121108464D01*
X178738113Y-120816594D01*
X178868000Y-120686707D01*
X178868000Y-120990908D01*
X176560617Y-123298292D01*
X176533526Y-123320525D01*
X176511293Y-123347616D01*
X176444801Y-123428637D01*
X176378872Y-123551981D01*
X176338274Y-123685816D01*
X176324565Y-123825000D01*
X176328001Y-123859885D01*
X176328000Y-125655000D01*
X126909707Y-125655000D01*
X127039594Y-125525113D01*
X127331464Y-125088298D01*
X127532508Y-124602935D01*
X127635000Y-124087677D01*
X127635000Y-123598982D01*
X137439400Y-123598982D01*
X137439400Y-124051019D01*
X137461084Y-124271177D01*
X137546775Y-124553664D01*
X137685931Y-124814006D01*
X137873203Y-125042197D01*
X138101395Y-125229469D01*
X138361737Y-125368625D01*
X138644224Y-125454316D01*
X138938000Y-125483251D01*
X139231777Y-125454316D01*
X139514264Y-125368625D01*
X139774606Y-125229469D01*
X140002797Y-125042197D01*
X140190069Y-124814006D01*
X140208000Y-124780459D01*
X140225931Y-124814006D01*
X140413203Y-125042197D01*
X140641395Y-125229469D01*
X140901737Y-125368625D01*
X141184224Y-125454316D01*
X141478000Y-125483251D01*
X141771777Y-125454316D01*
X142054264Y-125368625D01*
X142314606Y-125229469D01*
X142542797Y-125042197D01*
X142730069Y-124814006D01*
X142748000Y-124780459D01*
X142765931Y-124814006D01*
X142953203Y-125042197D01*
X143181395Y-125229469D01*
X143441737Y-125368625D01*
X143724224Y-125454316D01*
X144018000Y-125483251D01*
X144311777Y-125454316D01*
X144594264Y-125368625D01*
X144854606Y-125229469D01*
X145082797Y-125042197D01*
X145270069Y-124814006D01*
X145288000Y-124780459D01*
X145305931Y-124814006D01*
X145493203Y-125042197D01*
X145721395Y-125229469D01*
X145981737Y-125368625D01*
X146264224Y-125454316D01*
X146558000Y-125483251D01*
X146851777Y-125454316D01*
X147134264Y-125368625D01*
X147394606Y-125229469D01*
X147622797Y-125042197D01*
X147810069Y-124814006D01*
X147828000Y-124780459D01*
X147845931Y-124814006D01*
X148033203Y-125042197D01*
X148261395Y-125229469D01*
X148521737Y-125368625D01*
X148804224Y-125454316D01*
X149098000Y-125483251D01*
X149391777Y-125454316D01*
X149674264Y-125368625D01*
X149934606Y-125229469D01*
X150162797Y-125042197D01*
X150350069Y-124814006D01*
X150371424Y-124774053D01*
X150519514Y-124976729D01*
X150735965Y-125175733D01*
X150987081Y-125328686D01*
X151263211Y-125429709D01*
X151278974Y-125432358D01*
X151511000Y-125311217D01*
X151511000Y-123952000D01*
X151765000Y-123952000D01*
X151765000Y-125311217D01*
X151997026Y-125432358D01*
X152012789Y-125429709D01*
X152288919Y-125328686D01*
X152540035Y-125175733D01*
X152756486Y-124976729D01*
X152908000Y-124769367D01*
X153059514Y-124976729D01*
X153275965Y-125175733D01*
X153527081Y-125328686D01*
X153803211Y-125429709D01*
X153818974Y-125432358D01*
X154051000Y-125311217D01*
X154051000Y-123952000D01*
X151765000Y-123952000D01*
X151511000Y-123952000D01*
X151491000Y-123952000D01*
X151491000Y-123698000D01*
X151511000Y-123698000D01*
X151511000Y-122338783D01*
X151765000Y-122338783D01*
X151765000Y-123698000D01*
X154051000Y-123698000D01*
X154051000Y-122338783D01*
X154305000Y-122338783D01*
X154305000Y-123698000D01*
X154325000Y-123698000D01*
X154325000Y-123952000D01*
X154305000Y-123952000D01*
X154305000Y-125311217D01*
X154537026Y-125432358D01*
X154552789Y-125429709D01*
X154828919Y-125328686D01*
X155080035Y-125175733D01*
X155296486Y-124976729D01*
X155444576Y-124774053D01*
X155465931Y-124814006D01*
X155653203Y-125042197D01*
X155881395Y-125229469D01*
X156141737Y-125368625D01*
X156424224Y-125454316D01*
X156718000Y-125483251D01*
X157011777Y-125454316D01*
X157294264Y-125368625D01*
X157554606Y-125229469D01*
X157782797Y-125042197D01*
X157970069Y-124814006D01*
X158109225Y-124553663D01*
X158194916Y-124271176D01*
X158216600Y-124051018D01*
X158216600Y-123598982D01*
X160299400Y-123598982D01*
X160299400Y-124051019D01*
X160321084Y-124271177D01*
X160406775Y-124553664D01*
X160545931Y-124814006D01*
X160733203Y-125042197D01*
X160961395Y-125229469D01*
X161221737Y-125368625D01*
X161504224Y-125454316D01*
X161798000Y-125483251D01*
X162091777Y-125454316D01*
X162374264Y-125368625D01*
X162634606Y-125229469D01*
X162862797Y-125042197D01*
X163050069Y-124814006D01*
X163068000Y-124780459D01*
X163085931Y-124814006D01*
X163273203Y-125042197D01*
X163501395Y-125229469D01*
X163761737Y-125368625D01*
X164044224Y-125454316D01*
X164338000Y-125483251D01*
X164631777Y-125454316D01*
X164914264Y-125368625D01*
X165174606Y-125229469D01*
X165402797Y-125042197D01*
X165590069Y-124814006D01*
X165608000Y-124780459D01*
X165625931Y-124814006D01*
X165813203Y-125042197D01*
X166041395Y-125229469D01*
X166301737Y-125368625D01*
X166584224Y-125454316D01*
X166878000Y-125483251D01*
X167171777Y-125454316D01*
X167454264Y-125368625D01*
X167714606Y-125229469D01*
X167942797Y-125042197D01*
X168130069Y-124814006D01*
X168148000Y-124780459D01*
X168165931Y-124814006D01*
X168353203Y-125042197D01*
X168581395Y-125229469D01*
X168841737Y-125368625D01*
X169124224Y-125454316D01*
X169418000Y-125483251D01*
X169711777Y-125454316D01*
X169994264Y-125368625D01*
X170254606Y-125229469D01*
X170482797Y-125042197D01*
X170670069Y-124814006D01*
X170688000Y-124780459D01*
X170705931Y-124814006D01*
X170893203Y-125042197D01*
X171121395Y-125229469D01*
X171381737Y-125368625D01*
X171664224Y-125454316D01*
X171958000Y-125483251D01*
X172251777Y-125454316D01*
X172534264Y-125368625D01*
X172794606Y-125229469D01*
X173022797Y-125042197D01*
X173210069Y-124814006D01*
X173228000Y-124780459D01*
X173245931Y-124814006D01*
X173433203Y-125042197D01*
X173661395Y-125229469D01*
X173921737Y-125368625D01*
X174204224Y-125454316D01*
X174498000Y-125483251D01*
X174791777Y-125454316D01*
X175074264Y-125368625D01*
X175334606Y-125229469D01*
X175562797Y-125042197D01*
X175750069Y-124814006D01*
X175889225Y-124553663D01*
X175974916Y-124271176D01*
X175996600Y-124051018D01*
X175996600Y-123598981D01*
X175974916Y-123378823D01*
X175889225Y-123096336D01*
X175750069Y-122835994D01*
X175562797Y-122607803D01*
X175334605Y-122420531D01*
X175074263Y-122281375D01*
X174791776Y-122195684D01*
X174498000Y-122166749D01*
X174204223Y-122195684D01*
X173921736Y-122281375D01*
X173661394Y-122420531D01*
X173433203Y-122607803D01*
X173245931Y-122835995D01*
X173228000Y-122869541D01*
X173210069Y-122835994D01*
X173022797Y-122607803D01*
X172794605Y-122420531D01*
X172534263Y-122281375D01*
X172251776Y-122195684D01*
X171958000Y-122166749D01*
X171664223Y-122195684D01*
X171381736Y-122281375D01*
X171121394Y-122420531D01*
X170893203Y-122607803D01*
X170705931Y-122835995D01*
X170688000Y-122869541D01*
X170670069Y-122835994D01*
X170482797Y-122607803D01*
X170254605Y-122420531D01*
X169994263Y-122281375D01*
X169711776Y-122195684D01*
X169418000Y-122166749D01*
X169124223Y-122195684D01*
X168841736Y-122281375D01*
X168581394Y-122420531D01*
X168353203Y-122607803D01*
X168165931Y-122835995D01*
X168148000Y-122869541D01*
X168130069Y-122835994D01*
X167942797Y-122607803D01*
X167714605Y-122420531D01*
X167454263Y-122281375D01*
X167171776Y-122195684D01*
X166878000Y-122166749D01*
X166584223Y-122195684D01*
X166301736Y-122281375D01*
X166041394Y-122420531D01*
X165813203Y-122607803D01*
X165625931Y-122835995D01*
X165608000Y-122869541D01*
X165590069Y-122835994D01*
X165402797Y-122607803D01*
X165174605Y-122420531D01*
X164914263Y-122281375D01*
X164631776Y-122195684D01*
X164338000Y-122166749D01*
X164044223Y-122195684D01*
X163761736Y-122281375D01*
X163501394Y-122420531D01*
X163273203Y-122607803D01*
X163085931Y-122835995D01*
X163068000Y-122869541D01*
X163050069Y-122835994D01*
X162862797Y-122607803D01*
X162634605Y-122420531D01*
X162374263Y-122281375D01*
X162091776Y-122195684D01*
X161798000Y-122166749D01*
X161504223Y-122195684D01*
X161221736Y-122281375D01*
X160961394Y-122420531D01*
X160733203Y-122607803D01*
X160545931Y-122835995D01*
X160406775Y-123096337D01*
X160321084Y-123378824D01*
X160299400Y-123598982D01*
X158216600Y-123598982D01*
X158216600Y-123598981D01*
X158194916Y-123378823D01*
X158109225Y-123096336D01*
X157970069Y-122835994D01*
X157782797Y-122607803D01*
X157554605Y-122420531D01*
X157294263Y-122281375D01*
X157011776Y-122195684D01*
X156718000Y-122166749D01*
X156424223Y-122195684D01*
X156141736Y-122281375D01*
X155881394Y-122420531D01*
X155653203Y-122607803D01*
X155465931Y-122835995D01*
X155444576Y-122875947D01*
X155296486Y-122673271D01*
X155080035Y-122474267D01*
X154828919Y-122321314D01*
X154552789Y-122220291D01*
X154537026Y-122217642D01*
X154305000Y-122338783D01*
X154051000Y-122338783D01*
X153818974Y-122217642D01*
X153803211Y-122220291D01*
X153527081Y-122321314D01*
X153275965Y-122474267D01*
X153059514Y-122673271D01*
X152908000Y-122880633D01*
X152756486Y-122673271D01*
X152540035Y-122474267D01*
X152288919Y-122321314D01*
X152012789Y-122220291D01*
X151997026Y-122217642D01*
X151765000Y-122338783D01*
X151511000Y-122338783D01*
X151278974Y-122217642D01*
X151263211Y-122220291D01*
X150987081Y-122321314D01*
X150735965Y-122474267D01*
X150519514Y-122673271D01*
X150371424Y-122875947D01*
X150350069Y-122835994D01*
X150162797Y-122607803D01*
X149934605Y-122420531D01*
X149674263Y-122281375D01*
X149391776Y-122195684D01*
X149098000Y-122166749D01*
X148804223Y-122195684D01*
X148521736Y-122281375D01*
X148261394Y-122420531D01*
X148033203Y-122607803D01*
X147845931Y-122835995D01*
X147828000Y-122869541D01*
X147810069Y-122835994D01*
X147622797Y-122607803D01*
X147394605Y-122420531D01*
X147134263Y-122281375D01*
X146851776Y-122195684D01*
X146558000Y-122166749D01*
X146264223Y-122195684D01*
X145981736Y-122281375D01*
X145721394Y-122420531D01*
X145493203Y-122607803D01*
X145305931Y-122835995D01*
X145288000Y-122869541D01*
X145270069Y-122835994D01*
X145082797Y-122607803D01*
X144854605Y-122420531D01*
X144594263Y-122281375D01*
X144311776Y-122195684D01*
X144018000Y-122166749D01*
X143724223Y-122195684D01*
X143441736Y-122281375D01*
X143181394Y-122420531D01*
X142953203Y-122607803D01*
X142765931Y-122835995D01*
X142748000Y-122869541D01*
X142730069Y-122835994D01*
X142542797Y-122607803D01*
X142314605Y-122420531D01*
X142054263Y-122281375D01*
X141771776Y-122195684D01*
X141478000Y-122166749D01*
X141184223Y-122195684D01*
X140901736Y-122281375D01*
X140641394Y-122420531D01*
X140413203Y-122607803D01*
X140225931Y-122835995D01*
X140208000Y-122869541D01*
X140190069Y-122835994D01*
X140002797Y-122607803D01*
X139774605Y-122420531D01*
X139514263Y-122281375D01*
X139231776Y-122195684D01*
X138938000Y-122166749D01*
X138644223Y-122195684D01*
X138361736Y-122281375D01*
X138101394Y-122420531D01*
X137873203Y-122607803D01*
X137685931Y-122835995D01*
X137546775Y-123096337D01*
X137461084Y-123378824D01*
X137439400Y-123598982D01*
X127635000Y-123598982D01*
X127635000Y-123562323D01*
X127532508Y-123047065D01*
X127331464Y-122561702D01*
X127039594Y-122124887D01*
X126668113Y-121753406D01*
X126231298Y-121461536D01*
X125745935Y-121260492D01*
X125230677Y-121158000D01*
X124705323Y-121158000D01*
X124190065Y-121260492D01*
X123704702Y-121461536D01*
X123267887Y-121753406D01*
X122896406Y-122124887D01*
X122604536Y-122561702D01*
X122403492Y-123047065D01*
X122301000Y-123562323D01*
X122301000Y-124087677D01*
X122403492Y-124602935D01*
X122604536Y-125088298D01*
X122896406Y-125525113D01*
X123026293Y-125655000D01*
X111708000Y-125655000D01*
X111708000Y-120137514D01*
X160463000Y-120137514D01*
X160463000Y-120400486D01*
X160514304Y-120658405D01*
X160614939Y-120901359D01*
X160761038Y-121120013D01*
X160946987Y-121305962D01*
X161165641Y-121452061D01*
X161408595Y-121552696D01*
X161666514Y-121604000D01*
X161929486Y-121604000D01*
X162187405Y-121552696D01*
X162430359Y-121452061D01*
X162649013Y-121305962D01*
X162834962Y-121120013D01*
X162981061Y-120901359D01*
X163081696Y-120658405D01*
X163133000Y-120400486D01*
X163133000Y-120137514D01*
X163081696Y-119879595D01*
X162981061Y-119636641D01*
X162834962Y-119417987D01*
X162649013Y-119232038D01*
X162430359Y-119085939D01*
X162187405Y-118985304D01*
X161929486Y-118934000D01*
X161666514Y-118934000D01*
X161408595Y-118985304D01*
X161165641Y-119085939D01*
X160946987Y-119232038D01*
X160761038Y-119417987D01*
X160614939Y-119636641D01*
X160514304Y-119879595D01*
X160463000Y-120137514D01*
X111708000Y-120137514D01*
X111708000Y-117059967D01*
X135883000Y-117059967D01*
X135883000Y-117382033D01*
X135945832Y-117697912D01*
X136069082Y-117995463D01*
X136248013Y-118263252D01*
X136475748Y-118490987D01*
X136743537Y-118669918D01*
X137041088Y-118793168D01*
X137356967Y-118856000D01*
X137679033Y-118856000D01*
X137994912Y-118793168D01*
X138292463Y-118669918D01*
X138560252Y-118490987D01*
X138787987Y-118263252D01*
X138966918Y-117995463D01*
X139090168Y-117697912D01*
X139153000Y-117382033D01*
X139153000Y-117059967D01*
X142383000Y-117059967D01*
X142383000Y-117382033D01*
X142445832Y-117697912D01*
X142569082Y-117995463D01*
X142748013Y-118263252D01*
X142975748Y-118490987D01*
X143243537Y-118669918D01*
X143541088Y-118793168D01*
X143856967Y-118856000D01*
X144179033Y-118856000D01*
X144494912Y-118793168D01*
X144792463Y-118669918D01*
X145060252Y-118490987D01*
X145287987Y-118263252D01*
X145466918Y-117995463D01*
X145590168Y-117697912D01*
X145653000Y-117382033D01*
X145653000Y-117059967D01*
X145590168Y-116744088D01*
X145466918Y-116446537D01*
X145287987Y-116178748D01*
X145060252Y-115951013D01*
X144792463Y-115772082D01*
X144494912Y-115648832D01*
X144179033Y-115586000D01*
X143856967Y-115586000D01*
X143541088Y-115648832D01*
X143243537Y-115772082D01*
X142975748Y-115951013D01*
X142748013Y-116178748D01*
X142569082Y-116446537D01*
X142445832Y-116744088D01*
X142383000Y-117059967D01*
X139153000Y-117059967D01*
X139090168Y-116744088D01*
X138966918Y-116446537D01*
X138787987Y-116178748D01*
X138560252Y-115951013D01*
X138292463Y-115772082D01*
X137994912Y-115648832D01*
X137679033Y-115586000D01*
X137356967Y-115586000D01*
X137041088Y-115648832D01*
X136743537Y-115772082D01*
X136475748Y-115951013D01*
X136248013Y-116178748D01*
X136069082Y-116446537D01*
X135945832Y-116744088D01*
X135883000Y-117059967D01*
X111708000Y-117059967D01*
X111708000Y-115057514D01*
X160463000Y-115057514D01*
X160463000Y-115320486D01*
X160514304Y-115578405D01*
X160614939Y-115821359D01*
X160761038Y-116040013D01*
X160946987Y-116225962D01*
X161165641Y-116372061D01*
X161408595Y-116472696D01*
X161666514Y-116524000D01*
X161929486Y-116524000D01*
X162187405Y-116472696D01*
X162430359Y-116372061D01*
X162649013Y-116225962D01*
X162834962Y-116040013D01*
X162981061Y-115821359D01*
X163081696Y-115578405D01*
X163133000Y-115320486D01*
X163133000Y-115057514D01*
X163081696Y-114799595D01*
X162981061Y-114556641D01*
X162834962Y-114337987D01*
X162649013Y-114152038D01*
X162430359Y-114005939D01*
X162187405Y-113905304D01*
X161929486Y-113854000D01*
X161666514Y-113854000D01*
X161408595Y-113905304D01*
X161165641Y-114005939D01*
X160946987Y-114152038D01*
X160761038Y-114337987D01*
X160614939Y-114556641D01*
X160514304Y-114799595D01*
X160463000Y-115057514D01*
X111708000Y-115057514D01*
X111708000Y-113856413D01*
X136562192Y-113856413D01*
X136657956Y-114120814D01*
X136947571Y-114261704D01*
X137259108Y-114343384D01*
X137580595Y-114362718D01*
X137899675Y-114318961D01*
X138204088Y-114213795D01*
X138378044Y-114120814D01*
X138473808Y-113856413D01*
X143062192Y-113856413D01*
X143157956Y-114120814D01*
X143447571Y-114261704D01*
X143759108Y-114343384D01*
X144080595Y-114362718D01*
X144399675Y-114318961D01*
X144704088Y-114213795D01*
X144878044Y-114120814D01*
X144973808Y-113856413D01*
X144018000Y-112900605D01*
X143062192Y-113856413D01*
X138473808Y-113856413D01*
X137518000Y-112900605D01*
X136562192Y-113856413D01*
X111708000Y-113856413D01*
X111708000Y-112783595D01*
X135876282Y-112783595D01*
X135920039Y-113102675D01*
X136025205Y-113407088D01*
X136118186Y-113581044D01*
X136382587Y-113676808D01*
X137338395Y-112721000D01*
X137697605Y-112721000D01*
X138653413Y-113676808D01*
X138917814Y-113581044D01*
X139058704Y-113291429D01*
X139140384Y-112979892D01*
X139152189Y-112783595D01*
X142376282Y-112783595D01*
X142420039Y-113102675D01*
X142525205Y-113407088D01*
X142618186Y-113581044D01*
X142882587Y-113676808D01*
X143838395Y-112721000D01*
X144197605Y-112721000D01*
X145153413Y-113676808D01*
X145417814Y-113581044D01*
X145558704Y-113291429D01*
X145640384Y-112979892D01*
X145659718Y-112658405D01*
X145615961Y-112339325D01*
X145510795Y-112034912D01*
X145417814Y-111860956D01*
X145153413Y-111765192D01*
X144197605Y-112721000D01*
X143838395Y-112721000D01*
X142882587Y-111765192D01*
X142618186Y-111860956D01*
X142477296Y-112150571D01*
X142395616Y-112462108D01*
X142376282Y-112783595D01*
X139152189Y-112783595D01*
X139159718Y-112658405D01*
X139115961Y-112339325D01*
X139010795Y-112034912D01*
X138917814Y-111860956D01*
X138653413Y-111765192D01*
X137697605Y-112721000D01*
X137338395Y-112721000D01*
X136382587Y-111765192D01*
X136118186Y-111860956D01*
X135977296Y-112150571D01*
X135895616Y-112462108D01*
X135876282Y-112783595D01*
X111708000Y-112783595D01*
X111708000Y-111585587D01*
X136562192Y-111585587D01*
X137518000Y-112541395D01*
X138473808Y-111585587D01*
X143062192Y-111585587D01*
X144018000Y-112541395D01*
X144973808Y-111585587D01*
X144878044Y-111321186D01*
X144588429Y-111180296D01*
X144276892Y-111098616D01*
X143955405Y-111079282D01*
X143636325Y-111123039D01*
X143331912Y-111228205D01*
X143157956Y-111321186D01*
X143062192Y-111585587D01*
X138473808Y-111585587D01*
X138378044Y-111321186D01*
X138088429Y-111180296D01*
X137776892Y-111098616D01*
X137455405Y-111079282D01*
X137136325Y-111123039D01*
X136831912Y-111228205D01*
X136657956Y-111321186D01*
X136562192Y-111585587D01*
X111708000Y-111585587D01*
X111708000Y-110473203D01*
X164402000Y-110473203D01*
X164402000Y-110760797D01*
X164458107Y-111042866D01*
X164568165Y-111308569D01*
X164727944Y-111547696D01*
X164931304Y-111751056D01*
X165170431Y-111910835D01*
X165436134Y-112020893D01*
X165718203Y-112077000D01*
X166005797Y-112077000D01*
X166287866Y-112020893D01*
X166553569Y-111910835D01*
X166792696Y-111751056D01*
X166996056Y-111547696D01*
X167155835Y-111308569D01*
X167265893Y-111042866D01*
X167322000Y-110760797D01*
X167322000Y-110473203D01*
X167265893Y-110191134D01*
X167155835Y-109925431D01*
X166996056Y-109686304D01*
X166792696Y-109482944D01*
X166591424Y-109348459D01*
X166618337Y-109334073D01*
X166692946Y-109087551D01*
X165862000Y-108256605D01*
X165031054Y-109087551D01*
X165105663Y-109334073D01*
X165133977Y-109347523D01*
X164931304Y-109482944D01*
X164727944Y-109686304D01*
X164568165Y-109925431D01*
X164458107Y-110191134D01*
X164402000Y-110473203D01*
X111708000Y-110473203D01*
X111708000Y-108146521D01*
X164396583Y-108146521D01*
X164438303Y-108431074D01*
X164534735Y-108702020D01*
X164604927Y-108833337D01*
X164851449Y-108907946D01*
X165682395Y-108077000D01*
X166041605Y-108077000D01*
X166872551Y-108907946D01*
X167119073Y-108833337D01*
X167242473Y-108573561D01*
X167312823Y-108294703D01*
X167327417Y-108007479D01*
X167285697Y-107722926D01*
X167189265Y-107451980D01*
X167119073Y-107320663D01*
X166872551Y-107246054D01*
X166041605Y-108077000D01*
X165682395Y-108077000D01*
X164851449Y-107246054D01*
X164604927Y-107320663D01*
X164481527Y-107580439D01*
X164411177Y-107859297D01*
X164396583Y-108146521D01*
X111708000Y-108146521D01*
X111708000Y-106529702D01*
X153364903Y-106529702D01*
X153436486Y-106773671D01*
X153691996Y-106894571D01*
X153966184Y-106963300D01*
X154248512Y-106977217D01*
X154528130Y-106935787D01*
X154794292Y-106840603D01*
X154919514Y-106773671D01*
X154991097Y-106529702D01*
X154178000Y-105716605D01*
X153364903Y-106529702D01*
X111708000Y-106529702D01*
X111708000Y-105607512D01*
X152737783Y-105607512D01*
X152779213Y-105887130D01*
X152874397Y-106153292D01*
X152941329Y-106278514D01*
X153185298Y-106350097D01*
X153998395Y-105537000D01*
X154357605Y-105537000D01*
X155170702Y-106350097D01*
X155414671Y-106278514D01*
X155535571Y-106023004D01*
X155604300Y-105748816D01*
X155618217Y-105466488D01*
X155607724Y-105395665D01*
X157743000Y-105395665D01*
X157743000Y-105678335D01*
X157798147Y-105955574D01*
X157906320Y-106216727D01*
X158063363Y-106451759D01*
X158263241Y-106651637D01*
X158498273Y-106808680D01*
X158759426Y-106916853D01*
X159036665Y-106972000D01*
X159319335Y-106972000D01*
X159596574Y-106916853D01*
X159857727Y-106808680D01*
X160092759Y-106651637D01*
X160292637Y-106451759D01*
X160449680Y-106216727D01*
X160557853Y-105955574D01*
X160613000Y-105678335D01*
X160613000Y-105395665D01*
X160557853Y-105118426D01*
X160449680Y-104857273D01*
X160292637Y-104622241D01*
X160092759Y-104422363D01*
X159857727Y-104265320D01*
X159596574Y-104157147D01*
X159319335Y-104102000D01*
X159036665Y-104102000D01*
X158759426Y-104157147D01*
X158498273Y-104265320D01*
X158263241Y-104422363D01*
X158063363Y-104622241D01*
X157906320Y-104857273D01*
X157798147Y-105118426D01*
X157743000Y-105395665D01*
X155607724Y-105395665D01*
X155576787Y-105186870D01*
X155481603Y-104920708D01*
X155414671Y-104795486D01*
X155170702Y-104723903D01*
X154357605Y-105537000D01*
X153998395Y-105537000D01*
X153185298Y-104723903D01*
X152941329Y-104795486D01*
X152820429Y-105050996D01*
X152751700Y-105325184D01*
X152737783Y-105607512D01*
X111708000Y-105607512D01*
X111708000Y-104544298D01*
X153364903Y-104544298D01*
X154178000Y-105357395D01*
X154991097Y-104544298D01*
X154919514Y-104300329D01*
X154664004Y-104179429D01*
X154389816Y-104110700D01*
X154107488Y-104096783D01*
X153827870Y-104138213D01*
X153561708Y-104233397D01*
X153436486Y-104300329D01*
X153364903Y-104544298D01*
X111708000Y-104544298D01*
X111708000Y-103075438D01*
X142303505Y-103075438D01*
X142342605Y-103315549D01*
X142427798Y-103543418D01*
X142468652Y-103619852D01*
X142692236Y-103667159D01*
X143362395Y-102997000D01*
X142692236Y-102326841D01*
X142468652Y-102374148D01*
X142367763Y-102595516D01*
X142312000Y-102832313D01*
X142303505Y-103075438D01*
X111708000Y-103075438D01*
X111708000Y-102147236D01*
X142871841Y-102147236D01*
X143542000Y-102817395D01*
X143556143Y-102803253D01*
X143735748Y-102982858D01*
X143721605Y-102997000D01*
X143735748Y-103011143D01*
X143556143Y-103190748D01*
X143542000Y-103176605D01*
X142871841Y-103846764D01*
X142919148Y-104070348D01*
X143140516Y-104171237D01*
X143377313Y-104227000D01*
X143620438Y-104235495D01*
X143860549Y-104196395D01*
X144088418Y-104111202D01*
X144164852Y-104070348D01*
X144212158Y-103846766D01*
X144329264Y-103963872D01*
X144387142Y-103905994D01*
X144411463Y-103951494D01*
X144490815Y-104048185D01*
X144587506Y-104127537D01*
X144697820Y-104186502D01*
X144817518Y-104222812D01*
X144942000Y-104235072D01*
X146142000Y-104235072D01*
X146266482Y-104222812D01*
X146386180Y-104186502D01*
X146496494Y-104127537D01*
X146593185Y-104048185D01*
X146672537Y-103951494D01*
X146731502Y-103841180D01*
X146767812Y-103721482D01*
X146780072Y-103597000D01*
X146780072Y-102397000D01*
X146767812Y-102272518D01*
X146731502Y-102152820D01*
X146672537Y-102042506D01*
X146593185Y-101945815D01*
X146496494Y-101866463D01*
X146386180Y-101807498D01*
X146266482Y-101771188D01*
X146142000Y-101758928D01*
X144942000Y-101758928D01*
X144817518Y-101771188D01*
X144697820Y-101807498D01*
X144587506Y-101866463D01*
X144490815Y-101945815D01*
X144411463Y-102042506D01*
X144387142Y-102088006D01*
X144329264Y-102030128D01*
X144212158Y-102147234D01*
X144164852Y-101923652D01*
X143943484Y-101822763D01*
X143706687Y-101767000D01*
X143463562Y-101758505D01*
X143223451Y-101797605D01*
X142995582Y-101882798D01*
X142919148Y-101923652D01*
X142871841Y-102147236D01*
X111708000Y-102147236D01*
X111708000Y-101449702D01*
X153364903Y-101449702D01*
X153436486Y-101693671D01*
X153691996Y-101814571D01*
X153966184Y-101883300D01*
X154248512Y-101897217D01*
X154528130Y-101855787D01*
X154794292Y-101760603D01*
X154919514Y-101693671D01*
X154991097Y-101449702D01*
X154178000Y-100636605D01*
X153364903Y-101449702D01*
X111708000Y-101449702D01*
X111708000Y-100527512D01*
X152737783Y-100527512D01*
X152779213Y-100807130D01*
X152874397Y-101073292D01*
X152941329Y-101198514D01*
X153185298Y-101270097D01*
X153998395Y-100457000D01*
X154357605Y-100457000D01*
X155170702Y-101270097D01*
X155414671Y-101198514D01*
X155535571Y-100943004D01*
X155604300Y-100668816D01*
X155618217Y-100386488D01*
X155607724Y-100315665D01*
X157743000Y-100315665D01*
X157743000Y-100598335D01*
X157798147Y-100875574D01*
X157906320Y-101136727D01*
X158063363Y-101371759D01*
X158263241Y-101571637D01*
X158498273Y-101728680D01*
X158759426Y-101836853D01*
X159036665Y-101892000D01*
X159319335Y-101892000D01*
X159596574Y-101836853D01*
X159857727Y-101728680D01*
X160092759Y-101571637D01*
X160292637Y-101371759D01*
X160449680Y-101136727D01*
X160557853Y-100875574D01*
X160613000Y-100598335D01*
X160613000Y-100315665D01*
X160557853Y-100038426D01*
X160449680Y-99777273D01*
X160292637Y-99542241D01*
X160092759Y-99342363D01*
X159857727Y-99185320D01*
X159596574Y-99077147D01*
X159319335Y-99022000D01*
X159036665Y-99022000D01*
X158759426Y-99077147D01*
X158498273Y-99185320D01*
X158263241Y-99342363D01*
X158063363Y-99542241D01*
X157906320Y-99777273D01*
X157798147Y-100038426D01*
X157743000Y-100315665D01*
X155607724Y-100315665D01*
X155576787Y-100106870D01*
X155481603Y-99840708D01*
X155414671Y-99715486D01*
X155170702Y-99643903D01*
X154357605Y-100457000D01*
X153998395Y-100457000D01*
X153185298Y-99643903D01*
X152941329Y-99715486D01*
X152820429Y-99970996D01*
X152751700Y-100245184D01*
X152737783Y-100527512D01*
X111708000Y-100527512D01*
X111708000Y-99464298D01*
X153364903Y-99464298D01*
X154178000Y-100277395D01*
X154991097Y-99464298D01*
X154919514Y-99220329D01*
X154664004Y-99099429D01*
X154389816Y-99030700D01*
X154107488Y-99016783D01*
X153827870Y-99058213D01*
X153561708Y-99153397D01*
X153436486Y-99220329D01*
X153364903Y-99464298D01*
X111708000Y-99464298D01*
X111708000Y-97893702D01*
X153364903Y-97893702D01*
X153436486Y-98137671D01*
X153691996Y-98258571D01*
X153966184Y-98327300D01*
X154248512Y-98341217D01*
X154528130Y-98299787D01*
X154794292Y-98204603D01*
X154919514Y-98137671D01*
X154991097Y-97893702D01*
X154178000Y-97080605D01*
X153364903Y-97893702D01*
X111708000Y-97893702D01*
X111708000Y-96971512D01*
X152737783Y-96971512D01*
X152779213Y-97251130D01*
X152874397Y-97517292D01*
X152941329Y-97642514D01*
X153185298Y-97714097D01*
X153998395Y-96901000D01*
X154357605Y-96901000D01*
X155170702Y-97714097D01*
X155414671Y-97642514D01*
X155535571Y-97387004D01*
X155604300Y-97112816D01*
X155618217Y-96830488D01*
X155607724Y-96759665D01*
X157743000Y-96759665D01*
X157743000Y-97042335D01*
X157798147Y-97319574D01*
X157906320Y-97580727D01*
X158063363Y-97815759D01*
X158263241Y-98015637D01*
X158498273Y-98172680D01*
X158759426Y-98280853D01*
X159036665Y-98336000D01*
X159319335Y-98336000D01*
X159596574Y-98280853D01*
X159857727Y-98172680D01*
X160092759Y-98015637D01*
X160292637Y-97815759D01*
X160321071Y-97773203D01*
X164402000Y-97773203D01*
X164402000Y-98060797D01*
X164458107Y-98342866D01*
X164568165Y-98608569D01*
X164727944Y-98847696D01*
X164931304Y-99051056D01*
X165134759Y-99187000D01*
X164931304Y-99322944D01*
X164727944Y-99526304D01*
X164568165Y-99765431D01*
X164458107Y-100031134D01*
X164402000Y-100313203D01*
X164402000Y-100600797D01*
X164458107Y-100882866D01*
X164568165Y-101148569D01*
X164727944Y-101387696D01*
X164931304Y-101591056D01*
X165134759Y-101727000D01*
X164931304Y-101862944D01*
X164727944Y-102066304D01*
X164568165Y-102305431D01*
X164458107Y-102571134D01*
X164402000Y-102853203D01*
X164402000Y-103140797D01*
X164458107Y-103422866D01*
X164568165Y-103688569D01*
X164727944Y-103927696D01*
X164931304Y-104131056D01*
X165134759Y-104267000D01*
X164931304Y-104402944D01*
X164727944Y-104606304D01*
X164568165Y-104845431D01*
X164458107Y-105111134D01*
X164402000Y-105393203D01*
X164402000Y-105680797D01*
X164458107Y-105962866D01*
X164568165Y-106228569D01*
X164727944Y-106467696D01*
X164931304Y-106671056D01*
X165132576Y-106805541D01*
X165105663Y-106819927D01*
X165031054Y-107066449D01*
X165862000Y-107897395D01*
X166692946Y-107066449D01*
X166618337Y-106819927D01*
X166590023Y-106806477D01*
X166792696Y-106671056D01*
X166996056Y-106467696D01*
X167155835Y-106228569D01*
X167265893Y-105962866D01*
X167322000Y-105680797D01*
X167322000Y-105393203D01*
X167265893Y-105111134D01*
X167155835Y-104845431D01*
X166996056Y-104606304D01*
X166792696Y-104402944D01*
X166589241Y-104267000D01*
X166792696Y-104131056D01*
X166996056Y-103927696D01*
X167155835Y-103688569D01*
X167265893Y-103422866D01*
X167322000Y-103140797D01*
X167322000Y-102853203D01*
X167265893Y-102571134D01*
X167155835Y-102305431D01*
X166996056Y-102066304D01*
X166792696Y-101862944D01*
X166589241Y-101727000D01*
X166792696Y-101591056D01*
X166996056Y-101387696D01*
X167155835Y-101148569D01*
X167265893Y-100882866D01*
X167322000Y-100600797D01*
X167322000Y-100313203D01*
X167265893Y-100031134D01*
X167155835Y-99765431D01*
X166996056Y-99526304D01*
X166792696Y-99322944D01*
X166589241Y-99187000D01*
X166792696Y-99051056D01*
X166996056Y-98847696D01*
X167155835Y-98608569D01*
X167265893Y-98342866D01*
X167322000Y-98060797D01*
X167322000Y-97773203D01*
X167265893Y-97491134D01*
X167155835Y-97225431D01*
X166996056Y-96986304D01*
X166792696Y-96782944D01*
X166553569Y-96623165D01*
X166287866Y-96513107D01*
X166005797Y-96457000D01*
X165718203Y-96457000D01*
X165436134Y-96513107D01*
X165170431Y-96623165D01*
X164931304Y-96782944D01*
X164727944Y-96986304D01*
X164568165Y-97225431D01*
X164458107Y-97491134D01*
X164402000Y-97773203D01*
X160321071Y-97773203D01*
X160449680Y-97580727D01*
X160557853Y-97319574D01*
X160613000Y-97042335D01*
X160613000Y-96759665D01*
X160557853Y-96482426D01*
X160449680Y-96221273D01*
X160292637Y-95986241D01*
X160092759Y-95786363D01*
X159857727Y-95629320D01*
X159596574Y-95521147D01*
X159319335Y-95466000D01*
X159036665Y-95466000D01*
X158759426Y-95521147D01*
X158498273Y-95629320D01*
X158263241Y-95786363D01*
X158063363Y-95986241D01*
X157906320Y-96221273D01*
X157798147Y-96482426D01*
X157743000Y-96759665D01*
X155607724Y-96759665D01*
X155576787Y-96550870D01*
X155481603Y-96284708D01*
X155414671Y-96159486D01*
X155170702Y-96087903D01*
X154357605Y-96901000D01*
X153998395Y-96901000D01*
X153185298Y-96087903D01*
X152941329Y-96159486D01*
X152820429Y-96414996D01*
X152751700Y-96689184D01*
X152737783Y-96971512D01*
X111708000Y-96971512D01*
X111708000Y-95908298D01*
X153364903Y-95908298D01*
X154178000Y-96721395D01*
X154991097Y-95908298D01*
X154919514Y-95664329D01*
X154664004Y-95543429D01*
X154389816Y-95474700D01*
X154107488Y-95460783D01*
X153827870Y-95502213D01*
X153561708Y-95597397D01*
X153436486Y-95664329D01*
X153364903Y-95908298D01*
X111708000Y-95908298D01*
X111708000Y-88766852D01*
X149479500Y-88766852D01*
X149479500Y-89015148D01*
X149527940Y-89258674D01*
X149622959Y-89488071D01*
X149760906Y-89694522D01*
X149855384Y-89789000D01*
X149760906Y-89883478D01*
X149622959Y-90089929D01*
X149527940Y-90319326D01*
X149479500Y-90562852D01*
X149479500Y-90811148D01*
X149527940Y-91054674D01*
X149622959Y-91284071D01*
X149760906Y-91490522D01*
X149936478Y-91666094D01*
X150142929Y-91804041D01*
X150372326Y-91899060D01*
X150615852Y-91947500D01*
X150864148Y-91947500D01*
X151107674Y-91899060D01*
X151337071Y-91804041D01*
X151543522Y-91666094D01*
X151719094Y-91490522D01*
X151857041Y-91284071D01*
X151952060Y-91054674D01*
X152000500Y-90811148D01*
X152000500Y-90562852D01*
X151952060Y-90319326D01*
X151857041Y-90089929D01*
X151719094Y-89883478D01*
X151624616Y-89789000D01*
X151654610Y-89759006D01*
X151847599Y-89759006D01*
X151898009Y-89985185D01*
X152123733Y-90088626D01*
X152365300Y-90146044D01*
X152613427Y-90155231D01*
X152858578Y-90115833D01*
X153091333Y-90029366D01*
X153173991Y-89985185D01*
X153224401Y-89759006D01*
X152536000Y-89070605D01*
X151847599Y-89759006D01*
X151654610Y-89759006D01*
X151719094Y-89694522D01*
X151857041Y-89488071D01*
X151926137Y-89321258D01*
X152356395Y-88891000D01*
X152715605Y-88891000D01*
X153404006Y-89579401D01*
X153630185Y-89528991D01*
X153733626Y-89303267D01*
X153791044Y-89061700D01*
X153800231Y-88813573D01*
X153792723Y-88766852D01*
X158115500Y-88766852D01*
X158115500Y-89015148D01*
X158163940Y-89258674D01*
X158258959Y-89488071D01*
X158396906Y-89694522D01*
X158491384Y-89789000D01*
X158396906Y-89883478D01*
X158258959Y-90089929D01*
X158163940Y-90319326D01*
X158115500Y-90562852D01*
X158115500Y-90811148D01*
X158163940Y-91054674D01*
X158258959Y-91284071D01*
X158396906Y-91490522D01*
X158572478Y-91666094D01*
X158778929Y-91804041D01*
X159008326Y-91899060D01*
X159251852Y-91947500D01*
X159500148Y-91947500D01*
X159743674Y-91899060D01*
X159973071Y-91804041D01*
X160179522Y-91666094D01*
X160355094Y-91490522D01*
X160493041Y-91284071D01*
X160588060Y-91054674D01*
X160636500Y-90811148D01*
X160636500Y-90562852D01*
X160588060Y-90319326D01*
X160493041Y-90089929D01*
X160355094Y-89883478D01*
X160260616Y-89789000D01*
X160290610Y-89759006D01*
X160483599Y-89759006D01*
X160534009Y-89985185D01*
X160759733Y-90088626D01*
X161001300Y-90146044D01*
X161249427Y-90155231D01*
X161494578Y-90115833D01*
X161727333Y-90029366D01*
X161809991Y-89985185D01*
X161860401Y-89759006D01*
X161172000Y-89070605D01*
X160483599Y-89759006D01*
X160290610Y-89759006D01*
X160355094Y-89694522D01*
X160493041Y-89488071D01*
X160562137Y-89321258D01*
X160992395Y-88891000D01*
X161351605Y-88891000D01*
X162040006Y-89579401D01*
X162266185Y-89528991D01*
X162369626Y-89303267D01*
X162427044Y-89061700D01*
X162436231Y-88813573D01*
X162396833Y-88568422D01*
X162310366Y-88335667D01*
X162266185Y-88253009D01*
X162040006Y-88202599D01*
X161351605Y-88891000D01*
X160992395Y-88891000D01*
X160562137Y-88460742D01*
X160493041Y-88293929D01*
X160355094Y-88087478D01*
X160290610Y-88022994D01*
X160483599Y-88022994D01*
X161172000Y-88711395D01*
X161860401Y-88022994D01*
X161809991Y-87796815D01*
X161584267Y-87693374D01*
X161342700Y-87635956D01*
X161094573Y-87626769D01*
X160849422Y-87666167D01*
X160616667Y-87752634D01*
X160534009Y-87796815D01*
X160483599Y-88022994D01*
X160290610Y-88022994D01*
X160179522Y-87911906D01*
X159973071Y-87773959D01*
X159743674Y-87678940D01*
X159500148Y-87630500D01*
X159251852Y-87630500D01*
X159008326Y-87678940D01*
X158778929Y-87773959D01*
X158572478Y-87911906D01*
X158396906Y-88087478D01*
X158258959Y-88293929D01*
X158163940Y-88523326D01*
X158115500Y-88766852D01*
X153792723Y-88766852D01*
X153760833Y-88568422D01*
X153674366Y-88335667D01*
X153630185Y-88253009D01*
X153404006Y-88202599D01*
X152715605Y-88891000D01*
X152356395Y-88891000D01*
X151926137Y-88460742D01*
X151857041Y-88293929D01*
X151719094Y-88087478D01*
X151654610Y-88022994D01*
X151847599Y-88022994D01*
X152536000Y-88711395D01*
X153224401Y-88022994D01*
X153173991Y-87796815D01*
X152948267Y-87693374D01*
X152706700Y-87635956D01*
X152458573Y-87626769D01*
X152213422Y-87666167D01*
X151980667Y-87752634D01*
X151898009Y-87796815D01*
X151847599Y-88022994D01*
X151654610Y-88022994D01*
X151543522Y-87911906D01*
X151337071Y-87773959D01*
X151107674Y-87678940D01*
X150864148Y-87630500D01*
X150615852Y-87630500D01*
X150372326Y-87678940D01*
X150142929Y-87773959D01*
X149936478Y-87911906D01*
X149760906Y-88087478D01*
X149622959Y-88293929D01*
X149527940Y-88523326D01*
X149479500Y-88766852D01*
X111708000Y-88766852D01*
X111708000Y-84069514D01*
X155383000Y-84069514D01*
X155383000Y-84332486D01*
X155434304Y-84590405D01*
X155534939Y-84833359D01*
X155681038Y-85052013D01*
X155866987Y-85237962D01*
X156085641Y-85384061D01*
X156328595Y-85484696D01*
X156586514Y-85536000D01*
X156849486Y-85536000D01*
X157107405Y-85484696D01*
X157350359Y-85384061D01*
X157569013Y-85237962D01*
X157754962Y-85052013D01*
X157901061Y-84833359D01*
X157988000Y-84623470D01*
X158074939Y-84833359D01*
X158221038Y-85052013D01*
X158406987Y-85237962D01*
X158625641Y-85384061D01*
X158868595Y-85484696D01*
X159126514Y-85536000D01*
X159389486Y-85536000D01*
X159647405Y-85484696D01*
X159890359Y-85384061D01*
X160109013Y-85237962D01*
X160294962Y-85052013D01*
X160441061Y-84833359D01*
X160541696Y-84590405D01*
X160593000Y-84332486D01*
X160593000Y-84069514D01*
X160541696Y-83811595D01*
X160441061Y-83568641D01*
X160294962Y-83349987D01*
X160109013Y-83164038D01*
X159890359Y-83017939D01*
X159647405Y-82917304D01*
X159389486Y-82866000D01*
X159126514Y-82866000D01*
X158868595Y-82917304D01*
X158625641Y-83017939D01*
X158406987Y-83164038D01*
X158221038Y-83349987D01*
X158074939Y-83568641D01*
X157988000Y-83778530D01*
X157901061Y-83568641D01*
X157754962Y-83349987D01*
X157569013Y-83164038D01*
X157350359Y-83017939D01*
X157107405Y-82917304D01*
X156849486Y-82866000D01*
X156586514Y-82866000D01*
X156328595Y-82917304D01*
X156085641Y-83017939D01*
X155866987Y-83164038D01*
X155681038Y-83349987D01*
X155534939Y-83568641D01*
X155434304Y-83811595D01*
X155383000Y-84069514D01*
X111708000Y-84069514D01*
X111708000Y-81021514D01*
X146239000Y-81021514D01*
X146239000Y-81284486D01*
X146290304Y-81542405D01*
X146390939Y-81785359D01*
X146537038Y-82004013D01*
X146722987Y-82189962D01*
X146941641Y-82336061D01*
X147184595Y-82436696D01*
X147442514Y-82488000D01*
X147705486Y-82488000D01*
X147963405Y-82436696D01*
X148206359Y-82336061D01*
X148425013Y-82189962D01*
X148610962Y-82004013D01*
X148757061Y-81785359D01*
X148857696Y-81542405D01*
X148909000Y-81284486D01*
X148909000Y-81021514D01*
X151319000Y-81021514D01*
X151319000Y-81284486D01*
X151370304Y-81542405D01*
X151470939Y-81785359D01*
X151617038Y-82004013D01*
X151802987Y-82189962D01*
X152021641Y-82336061D01*
X152264595Y-82436696D01*
X152522514Y-82488000D01*
X152785486Y-82488000D01*
X153043405Y-82436696D01*
X153286359Y-82336061D01*
X153505013Y-82189962D01*
X153690962Y-82004013D01*
X153837061Y-81785359D01*
X153937696Y-81542405D01*
X153989000Y-81284486D01*
X153989000Y-81021514D01*
X153937696Y-80763595D01*
X153837061Y-80520641D01*
X153690962Y-80301987D01*
X153505013Y-80116038D01*
X153286359Y-79969939D01*
X153043405Y-79869304D01*
X152785486Y-79818000D01*
X152522514Y-79818000D01*
X152264595Y-79869304D01*
X152021641Y-79969939D01*
X151802987Y-80116038D01*
X151617038Y-80301987D01*
X151470939Y-80520641D01*
X151370304Y-80763595D01*
X151319000Y-81021514D01*
X148909000Y-81021514D01*
X148857696Y-80763595D01*
X148757061Y-80520641D01*
X148610962Y-80301987D01*
X148425013Y-80116038D01*
X148206359Y-79969939D01*
X147963405Y-79869304D01*
X147705486Y-79818000D01*
X147442514Y-79818000D01*
X147184595Y-79869304D01*
X146941641Y-79969939D01*
X146722987Y-80116038D01*
X146537038Y-80301987D01*
X146390939Y-80520641D01*
X146290304Y-80763595D01*
X146239000Y-81021514D01*
X111708000Y-81021514D01*
X111708000Y-78989514D01*
X155383000Y-78989514D01*
X155383000Y-79252486D01*
X155434304Y-79510405D01*
X155534939Y-79753359D01*
X155681038Y-79972013D01*
X155866987Y-80157962D01*
X156085641Y-80304061D01*
X156328595Y-80404696D01*
X156586514Y-80456000D01*
X156849486Y-80456000D01*
X157107405Y-80404696D01*
X157350359Y-80304061D01*
X157569013Y-80157962D01*
X157754962Y-79972013D01*
X157901061Y-79753359D01*
X157988000Y-79543470D01*
X158074939Y-79753359D01*
X158221038Y-79972013D01*
X158406987Y-80157962D01*
X158625641Y-80304061D01*
X158868595Y-80404696D01*
X159126514Y-80456000D01*
X159389486Y-80456000D01*
X159647405Y-80404696D01*
X159890359Y-80304061D01*
X160109013Y-80157962D01*
X160294962Y-79972013D01*
X160441061Y-79753359D01*
X160541696Y-79510405D01*
X160593000Y-79252486D01*
X160593000Y-78989514D01*
X160541696Y-78731595D01*
X160441061Y-78488641D01*
X160294962Y-78269987D01*
X160109013Y-78084038D01*
X159890359Y-77937939D01*
X159647405Y-77837304D01*
X159389486Y-77786000D01*
X159126514Y-77786000D01*
X158868595Y-77837304D01*
X158625641Y-77937939D01*
X158406987Y-78084038D01*
X158221038Y-78269987D01*
X158074939Y-78488641D01*
X157988000Y-78698530D01*
X157901061Y-78488641D01*
X157754962Y-78269987D01*
X157569013Y-78084038D01*
X157350359Y-77937939D01*
X157107405Y-77837304D01*
X156849486Y-77786000D01*
X156586514Y-77786000D01*
X156328595Y-77837304D01*
X156085641Y-77937939D01*
X155866987Y-78084038D01*
X155681038Y-78269987D01*
X155534939Y-78488641D01*
X155434304Y-78731595D01*
X155383000Y-78989514D01*
X111708000Y-78989514D01*
X111708000Y-73735000D01*
X124296293Y-73735000D01*
X124166406Y-73864887D01*
G37*
%TD.AperFunction*%
%TD*%
M02*
