%TF.GenerationSoftware,KiCad,Pcbnew,(5.1.9)-1*%
%TF.CreationDate,2021-02-19T11:51:52-05:00*%
%TF.ProjectId,K3NG_rotator_shield,4b334e47-5f72-46f7-9461-746f725f7368,rev?*%
%TF.SameCoordinates,Original*%
%TF.FileFunction,Soldermask,Top*%
%TF.FilePolarity,Negative*%
%FSLAX46Y46*%
G04 Gerber Fmt 4.6, Leading zero omitted, Abs format (unit mm)*
G04 Created by KiCad (PCBNEW (5.1.9)-1) date 2021-02-19 11:51:52*
%MOMM*%
%LPD*%
G01*
G04 APERTURE LIST*
%ADD10C,1.500000*%
%ADD11C,1.295400*%
%ADD12R,1.295400X1.295400*%
%ADD13C,1.100000*%
%ADD14R,1.100000X1.100000*%
%ADD15C,1.200000*%
%ADD16C,4.064000*%
%ADD17C,1.650000*%
%ADD18O,1.727200X2.032000*%
G04 APERTURE END LIST*
D10*
%TO.C,S1*%
X119924000Y-109670000D03*
X119924000Y-116170000D03*
X124424000Y-116170000D03*
X124424000Y-109670000D03*
%TD*%
D11*
%TO.C,R3*%
X153924000Y-81661000D03*
D12*
X161798000Y-81661000D03*
%TD*%
D11*
%TO.C,R4*%
X152400000Y-90805000D03*
D12*
X144526000Y-90805000D03*
%TD*%
D11*
%TO.C,R2*%
X152400000Y-86233000D03*
D12*
X144526000Y-86233000D03*
%TD*%
D11*
%TO.C,R1*%
X153924000Y-117729000D03*
D12*
X161798000Y-117729000D03*
%TD*%
D13*
%TO.C,Q2*%
X135890000Y-95377000D03*
X135890000Y-97917000D03*
X134620000Y-96647000D03*
%TD*%
%TO.C,Q1*%
X130810000Y-104267000D03*
X130810000Y-106807000D03*
X129540000Y-105537000D03*
%TD*%
%TO.C,C4*%
X153162000Y-103021000D03*
D14*
X153162000Y-104521000D03*
%TD*%
D15*
%TO.C,C3*%
X143002000Y-100417000D03*
X143002000Y-97917000D03*
%TD*%
%TO.C,C2*%
X148082000Y-100497000D03*
X148082000Y-102997000D03*
%TD*%
%TO.C,C1*%
X158242000Y-105323000D03*
X158242000Y-107823000D03*
%TD*%
D16*
%TO.C,P8*%
X177038000Y-108077000D03*
%TD*%
%TO.C,P8*%
X177038000Y-100457000D03*
%TD*%
D17*
%TO.C,J1*%
X165862000Y-110617000D03*
X165862000Y-108077000D03*
X165862000Y-105537000D03*
X165862000Y-102997000D03*
X165862000Y-100457000D03*
X165862000Y-97917000D03*
%TD*%
D18*
%TO.C,P1*%
X138938000Y-123825000D03*
X141478000Y-123825000D03*
X144018000Y-123825000D03*
X146558000Y-123825000D03*
X149098000Y-123825000D03*
X151638000Y-123825000D03*
X154178000Y-123825000D03*
X156718000Y-123825000D03*
%TD*%
%TO.C,P2*%
X161798000Y-123825000D03*
X164338000Y-123825000D03*
X166878000Y-123825000D03*
X169418000Y-123825000D03*
X171958000Y-123825000D03*
X174498000Y-123825000D03*
%TD*%
%TO.C,P3*%
X129794000Y-75565000D03*
X132334000Y-75565000D03*
X134874000Y-75565000D03*
X137414000Y-75565000D03*
X139954000Y-75565000D03*
X142494000Y-75565000D03*
X145034000Y-75565000D03*
X147574000Y-75565000D03*
X150114000Y-75565000D03*
X152654000Y-75565000D03*
%TD*%
%TO.C,P4*%
X156718000Y-75565000D03*
X159258000Y-75565000D03*
X161798000Y-75565000D03*
X164338000Y-75565000D03*
X166878000Y-75565000D03*
X169418000Y-75565000D03*
X171958000Y-75565000D03*
X174498000Y-75565000D03*
%TD*%
D16*
%TO.C,P5*%
X124968000Y-123825000D03*
%TD*%
%TO.C,P6*%
X177038000Y-118745000D03*
%TD*%
%TO.C,P7*%
X126238000Y-75565000D03*
%TD*%
%TO.C,P8*%
X177038000Y-90805000D03*
%TD*%
M02*
