M48
; DRILL file {KiCad (5.1.9)-1} date 02/18/21 13:48:00
; FORMAT={3:3/ absolute / metric / suppress leading zeros}
; #@! TF.CreationDate,2021-02-18T13:48:00-05:00
; #@! TF.GenerationSoftware,Kicad,Pcbnew,(5.1.9)-1
FMAT,2
METRIC,TZ
T1C0.600
T2C0.700
T3C0.730
T4C0.800
T5C1.016
T6C1.100
T7C3.048
%
G90
G05
T1
X143542Y-102997
X145542Y-102997
T2
X147574Y-81153
X152654Y-81153
X156718Y-79121
X156718Y-84201
X159258Y-79121
X159258Y-84201
X161798Y-115189
X161798Y-120269
T3
X150740Y-88891
X150740Y-90687
X152536Y-88891
X159376Y-88891
X159376Y-90687
X161172Y-88891
T4
X154178Y-96901
X154178Y-100457
X154178Y-105537
X159178Y-96901
X159178Y-100457
X159178Y-105537
T5
X129794Y-75565
X132334Y-75565
X134874Y-75565
X137414Y-75565
X138938Y-123825
X139954Y-75565
X141478Y-123825
X142494Y-75565
X144018Y-123825
X145034Y-75565
X146558Y-123825
X147574Y-75565
X149098Y-123825
X150114Y-75565
X151638Y-123825
X152654Y-75565
X154178Y-123825
X156718Y-75565
X156718Y-123825
X159258Y-75565
X161798Y-75565
X161798Y-123825
X164338Y-75565
X164338Y-123825
X166878Y-75565
X166878Y-123825
X169418Y-75565
X169418Y-123825
X171958Y-75565
X171958Y-123825
X174498Y-75565
X174498Y-123825
T6
X137518Y-112721
X137518Y-117221
X144018Y-112721
X144018Y-117221
X165862Y-97917
X165862Y-100457
X165862Y-102997
X165862Y-105537
X165862Y-108077
X165862Y-110617
T7
X124968Y-123825
X126238Y-75565
X177038Y-90805
X177038Y-100457
X177038Y-108077
X177038Y-118745
T0
M30
