%TF.GenerationSoftware,KiCad,Pcbnew,(5.1.9)-1*%
%TF.CreationDate,2021-02-19T11:51:52-05:00*%
%TF.ProjectId,K3NG_rotator_shield,4b334e47-5f72-46f7-9461-746f725f7368,rev?*%
%TF.SameCoordinates,Original*%
%TF.FileFunction,Legend,Bot*%
%TF.FilePolarity,Positive*%
%FSLAX46Y46*%
G04 Gerber Fmt 4.6, Leading zero omitted, Abs format (unit mm)*
G04 Created by KiCad (PCBNEW (5.1.9)-1) date 2021-02-19 11:51:52*
%MOMM*%
%LPD*%
G01*
G04 APERTURE LIST*
%ADD10C,0.150000*%
G04 APERTURE END LIST*
D10*
X127586571Y-98798571D02*
X127443714Y-98846190D01*
X127396095Y-98893809D01*
X127348476Y-98989047D01*
X127348476Y-99131904D01*
X127396095Y-99227142D01*
X127443714Y-99274761D01*
X127538952Y-99322380D01*
X127919904Y-99322380D01*
X127919904Y-98322380D01*
X127586571Y-98322380D01*
X127491333Y-98370000D01*
X127443714Y-98417619D01*
X127396095Y-98512857D01*
X127396095Y-98608095D01*
X127443714Y-98703333D01*
X127491333Y-98750952D01*
X127586571Y-98798571D01*
X127919904Y-98798571D01*
X126491333Y-99322380D02*
X126491333Y-98798571D01*
X126538952Y-98703333D01*
X126634190Y-98655714D01*
X126824666Y-98655714D01*
X126919904Y-98703333D01*
X126491333Y-99274761D02*
X126586571Y-99322380D01*
X126824666Y-99322380D01*
X126919904Y-99274761D01*
X126967523Y-99179523D01*
X126967523Y-99084285D01*
X126919904Y-98989047D01*
X126824666Y-98941428D01*
X126586571Y-98941428D01*
X126491333Y-98893809D01*
X126062761Y-99274761D02*
X125967523Y-99322380D01*
X125777047Y-99322380D01*
X125681809Y-99274761D01*
X125634190Y-99179523D01*
X125634190Y-99131904D01*
X125681809Y-99036666D01*
X125777047Y-98989047D01*
X125919904Y-98989047D01*
X126015142Y-98941428D01*
X126062761Y-98846190D01*
X126062761Y-98798571D01*
X126015142Y-98703333D01*
X125919904Y-98655714D01*
X125777047Y-98655714D01*
X125681809Y-98703333D01*
X125205619Y-99322380D02*
X125205619Y-98655714D01*
X125205619Y-98322380D02*
X125253238Y-98370000D01*
X125205619Y-98417619D01*
X125158000Y-98370000D01*
X125205619Y-98322380D01*
X125205619Y-98417619D01*
X124300857Y-99274761D02*
X124396095Y-99322380D01*
X124586571Y-99322380D01*
X124681809Y-99274761D01*
X124729428Y-99227142D01*
X124777047Y-99131904D01*
X124777047Y-98846190D01*
X124729428Y-98750952D01*
X124681809Y-98703333D01*
X124586571Y-98655714D01*
X124396095Y-98655714D01*
X124300857Y-98703333D01*
X123158000Y-99036666D02*
X122681809Y-99036666D01*
X123253238Y-99322380D02*
X122919904Y-98322380D01*
X122586571Y-99322380D01*
X122348476Y-98322380D02*
X121681809Y-98322380D01*
X122348476Y-99322380D01*
X121681809Y-99322380D01*
X120538952Y-99322380D02*
X120538952Y-98322380D01*
X120062761Y-98655714D02*
X120062761Y-99322380D01*
X120062761Y-98750952D02*
X120015142Y-98703333D01*
X119919904Y-98655714D01*
X119777047Y-98655714D01*
X119681809Y-98703333D01*
X119634190Y-98798571D01*
X119634190Y-99322380D01*
X119300857Y-98655714D02*
X118919904Y-98655714D01*
X119158000Y-98322380D02*
X119158000Y-99179523D01*
X119110380Y-99274761D01*
X119015142Y-99322380D01*
X118919904Y-99322380D01*
X118205619Y-99274761D02*
X118300857Y-99322380D01*
X118491333Y-99322380D01*
X118586571Y-99274761D01*
X118634190Y-99179523D01*
X118634190Y-98798571D01*
X118586571Y-98703333D01*
X118491333Y-98655714D01*
X118300857Y-98655714D01*
X118205619Y-98703333D01*
X118158000Y-98798571D01*
X118158000Y-98893809D01*
X118634190Y-98989047D01*
X117729428Y-99322380D02*
X117729428Y-98655714D01*
X117729428Y-98846190D02*
X117681809Y-98750952D01*
X117634190Y-98703333D01*
X117538952Y-98655714D01*
X117443714Y-98655714D01*
X117253238Y-98655714D02*
X116872285Y-98655714D01*
X117110380Y-99322380D02*
X117110380Y-98465238D01*
X117062761Y-98370000D01*
X116967523Y-98322380D01*
X116872285Y-98322380D01*
X116110380Y-99322380D02*
X116110380Y-98798571D01*
X116158000Y-98703333D01*
X116253238Y-98655714D01*
X116443714Y-98655714D01*
X116538952Y-98703333D01*
X116110380Y-99274761D02*
X116205619Y-99322380D01*
X116443714Y-99322380D01*
X116538952Y-99274761D01*
X116586571Y-99179523D01*
X116586571Y-99084285D01*
X116538952Y-98989047D01*
X116443714Y-98941428D01*
X116205619Y-98941428D01*
X116110380Y-98893809D01*
X115205619Y-99274761D02*
X115300857Y-99322380D01*
X115491333Y-99322380D01*
X115586571Y-99274761D01*
X115634190Y-99227142D01*
X115681809Y-99131904D01*
X115681809Y-98846190D01*
X115634190Y-98750952D01*
X115586571Y-98703333D01*
X115491333Y-98655714D01*
X115300857Y-98655714D01*
X115205619Y-98703333D01*
X114396095Y-99274761D02*
X114491333Y-99322380D01*
X114681809Y-99322380D01*
X114777047Y-99274761D01*
X114824666Y-99179523D01*
X114824666Y-98798571D01*
X114777047Y-98703333D01*
X114681809Y-98655714D01*
X114491333Y-98655714D01*
X114396095Y-98703333D01*
X114348476Y-98798571D01*
X114348476Y-98893809D01*
X114824666Y-98989047D01*
X122681809Y-99972380D02*
X122348476Y-100972380D01*
X122015142Y-99972380D01*
X121158000Y-100972380D02*
X121729428Y-100972380D01*
X121443714Y-100972380D02*
X121443714Y-99972380D01*
X121538952Y-100115238D01*
X121634190Y-100210476D01*
X121729428Y-100258095D01*
X120729428Y-100877142D02*
X120681809Y-100924761D01*
X120729428Y-100972380D01*
X120777047Y-100924761D01*
X120729428Y-100877142D01*
X120729428Y-100972380D01*
X120062761Y-99972380D02*
X119967523Y-99972380D01*
X119872285Y-100020000D01*
X119824666Y-100067619D01*
X119777047Y-100162857D01*
X119729428Y-100353333D01*
X119729428Y-100591428D01*
X119777047Y-100781904D01*
X119824666Y-100877142D01*
X119872285Y-100924761D01*
X119967523Y-100972380D01*
X120062761Y-100972380D01*
X120158000Y-100924761D01*
X120205619Y-100877142D01*
X120253238Y-100781904D01*
X120300857Y-100591428D01*
X120300857Y-100353333D01*
X120253238Y-100162857D01*
X120205619Y-100067619D01*
X120158000Y-100020000D01*
X120062761Y-99972380D01*
M02*
