M48
; DRILL file {KiCad (5.1.9)-1} date 02/19/21 11:51:55
; FORMAT={3:3/ absolute / metric / suppress leading zeros}
; #@! TF.CreationDate,2021-02-19T11:51:55-05:00
; #@! TF.GenerationSoftware,Kicad,Pcbnew,(5.1.9)-1
FMAT,2
METRIC,TZ
T1C0.680
T2C0.700
T3C0.750
T4C0.787
T5C1.000
T6C1.016
T7C1.100
T8C3.048
%
G90
G05
T1
X129540Y-105537
X130810Y-104267
X130810Y-106807
X134620Y-96647
X135890Y-95377
X135890Y-97917
T2
X153162Y-103021
X153162Y-104521
T3
X143002Y-97917
X143002Y-100417
X148082Y-100497
X148082Y-102997
X158242Y-105323
X158242Y-107823
T4
X144526Y-86233
X144526Y-90805
X152400Y-86233
X152400Y-90805
X153924Y-81661
X153924Y-117729
X161798Y-81661
X161798Y-117729
T5
X119924Y-109670
X119924Y-116170
X124424Y-109670
X124424Y-116170
T6
X129794Y-75565
X132334Y-75565
X134874Y-75565
X137414Y-75565
X138938Y-123825
X139954Y-75565
X141478Y-123825
X142494Y-75565
X144018Y-123825
X145034Y-75565
X146558Y-123825
X147574Y-75565
X149098Y-123825
X150114Y-75565
X151638Y-123825
X152654Y-75565
X154178Y-123825
X156718Y-75565
X156718Y-123825
X159258Y-75565
X161798Y-75565
X161798Y-123825
X164338Y-75565
X164338Y-123825
X166878Y-75565
X166878Y-123825
X169418Y-75565
X169418Y-123825
X171958Y-75565
X171958Y-123825
X174498Y-75565
X174498Y-123825
T7
X165862Y-97917
X165862Y-100457
X165862Y-102997
X165862Y-105537
X165862Y-108077
X165862Y-110617
T8
X124968Y-123825
X126238Y-75565
X177038Y-90805
X177038Y-100457
X177038Y-108077
X177038Y-118745
T0
M30
